<?xml version="1.0" encoding="UTF-8"?>
<svg width="18px" height="20px" viewBox="0 0 18 20" version="1.1" xmlns="http://www.w3.org/2000/svg" xmlns:xlink="http://www.w3.org/1999/xlink">
    <!-- Generator: Sketch 50.2 (55047) - http://www.bohemiancoding.com/sketch -->
    <title>Samples icon</title>
    <desc>Created with Sketch.</desc>
    <defs></defs>
    <g id="Samples-icon" stroke="none" stroke-width="1" fill="none" fill-rule="evenodd">
        <path d="M3,18 L15,18 L15,6 L3,6 L3,18 Z M2,4 L4,4 L4,2 L2,2 L2,4 Z M6,4 L8,4 L8,2 L6,2 L6,4 Z M10,4 L16,4 L16,2 L10,2 L10,4 Z M18,0 L18,6 L17,6 L17,20 L1,20 L1,6 L0,6 L0,0 L18,0 Z M9,16 C11.209,16 13,14.209 13,12 C13,9.791 11.209,8 9,8 C6.791,8 5,9.791 5,12 C5,14.209 6.791,16 9,16 Z M9,10 C10.103,10 11,10.897 11,12 C11,13.103 10.103,14 9,14 C7.897,14 7,13.103 7,12 C7,10.897 7.897,10 9,10 Z" id="Combined-Shape" fill="#1DC77D"></path>
    </g>
</svg>