<?xml version="1.0" encoding="UTF-8"?>
<svg width="18px" height="20px" viewBox="0 0 18 20" version="1.1" xmlns="http://www.w3.org/2000/svg" xmlns:xlink="http://www.w3.org/1999/xlink">
    <!-- Generator: Sketch 46.2 (44496) - http://www.bohemiancoding.com/sketch -->
    <title>Combined Shape</title>
    <desc>Created with Sketch.</desc>
    <defs></defs>
    <g id="✅-Sample-request" stroke="none" stroke-width="1" fill="none" fill-rule="evenodd">
        <g id="Sample-Request-1-Copy-4" transform="translate(-100.000000, -792.000000)" fill="#001032">
            <path d="M103,810 L115,810 L115,798 L103,798 L103,810 Z M102,796 L104,796 L104,794 L102,794 L102,796 Z M106,796 L108,796 L108,794 L106,794 L106,796 Z M110,796 L116,796 L116,794 L110,794 L110,796 Z M118,792 L118,798 L117,798 L117,812 L101,812 L101,798 L100,798 L100,792 L118,792 Z M109,808 C111.209,808 113,806.209 113,804 C113,801.791 111.209,800 109,800 C106.791,800 105,801.791 105,804 C105,806.209 106.791,808 109,808 Z M109,802 C110.103,802 111,802.897 111,804 C111,805.103 110.103,806 109,806 C107.897,806 107,805.103 107,804 C107,802.897 107.897,802 109,802 Z" id="Combined-Shape"></path>
        </g>
    </g>
</svg>