<?xml version="1.0" encoding="UTF-8" standalone="no"?>
<svg width="11px" height="11px" viewBox="0 0 11 11" version="1.1" xmlns="http://www.w3.org/2000/svg" xmlns:xlink="http://www.w3.org/1999/xlink">
    <!-- Generator: Sketch 41.2 (35397) - http://www.bohemiancoding.com/sketch -->
    <title>Check</title>
    <desc>Created with Sketch.</desc>
    <defs></defs>
    <g id="V2" stroke="none" stroke-width="1" fill="none" fill-rule="evenodd">
        <g id="Lightscale-One-pager-Copy" transform="translate(-120.000000, -545.000000)" fill="#1DC77D">
            <path d="M125.5,555 C123.0185,555 121,552.9815 121,550.5 C121,548.0185 123.0185,546 125.5,546 C127.9815,546 130,548.0185 130,550.5 C130,552.9815 127.9815,555 125.5,555 M125.5,545 C122.4625,545 120,547.4625 120,550.5 C120,553.5375 122.4625,556 125.5,556 C128.5375,556 131,553.5375 131,550.5 C131,547.4625 128.5375,545 125.5,545 Z M127.6465,548.68945 L124.818,551.51795 L123.404,550.10345 C123.2085,549.90845 122.892,549.90845 122.697,550.10345 C122.5015,550.29845 122.5015,550.61545 122.697,550.81045 L124.818,552.93195 L128.3535,549.39645 C128.549,549.20095 128.549,548.88495 128.3535,548.68945 C128.158,548.49395 127.842,548.49395 127.6465,548.68945 Z" id="Check"></path>
        </g>
    </g>
</svg>