<?xml version="1.0" encoding="UTF-8" standalone="no"?>
<svg width="22px" height="22px" viewBox="0 0 22 22" version="1.1" xmlns="http://www.w3.org/2000/svg" xmlns:xlink="http://www.w3.org/1999/xlink">
    <!-- Generator: Sketch 41.2 (35397) - http://www.bohemiancoding.com/sketch -->
    <title>Check</title>
    <desc>Created with Sketch.</desc>
    <defs></defs>
    <g id="Page-1" stroke="none" stroke-width="1" fill="none" fill-rule="evenodd">
        <g id="Desktop-HD-Copy-2" transform="translate(-119.000000, -1598.000000)" fill="#1DC77D">
            <path d="M130,1618 C125.037,1618 121,1613.963 121,1609 C121,1604.037 125.037,1600 130,1600 C134.963,1600 139,1604.037 139,1609 C139,1613.963 134.963,1618 130,1618 M130,1598 C123.925,1598 119,1602.925 119,1609 C119,1615.075 123.925,1620 130,1620 C136.075,1620 141,1615.075 141,1609 C141,1602.925 136.075,1598 130,1598 Z M134.293,1605.3789 L128.636,1611.0359 L125.808,1608.2069 C125.417,1607.8169 124.784,1607.8169 124.394,1608.2069 C124.003,1608.5969 124.003,1609.2309 124.394,1609.6209 L128.636,1613.8639 L135.707,1606.7929 C136.098,1606.4019 136.098,1605.7699 135.707,1605.3789 C135.316,1604.9879 134.684,1604.9879 134.293,1605.3789 Z" id="Check"></path>
        </g>
    </g>
</svg>