<?xml version="1.0" encoding="UTF-8"?>
<svg width="170px" height="52px" viewBox="0 0 170 52" version="1.1" xmlns="http://www.w3.org/2000/svg" xmlns:xlink="http://www.w3.org/1999/xlink">
    <!-- Generator: Sketch 41.2 (35397) - http://www.bohemiancoding.com/sketch -->
    <title>formlogo</title>
    <desc>Created with Sketch.</desc>
    <defs>
        <path d="M25.7019438,0 L0,0 L0,36.7170626 L36.7170626,36.7170626 L36.7170626,11.0151188 L25.7019438,11.0151188 L25.7019438,0 Z M22.0302376,3.67170626 L22.0302376,11.0151188 L22.0302376,14.6868251 L25.7019438,14.6868251 L33.0453564,14.6868251 L33.0453564,33.0453564 L3.67170626,33.0453564 L3.67170626,3.67170626 L22.0302376,3.67170626 Z" id="path-1"></path>
        <path d="M11.0151188,0 L0,0 L0,22.0302376 L22.0302376,22.0302376 L22.0302376,11.0151188 L11.0151188,11.0151188 L11.0151188,0 Z M7.34341253,3.67170626 L7.34341253,11.0151188 L7.34341253,14.6868251 L11.0151188,14.6868251 L18.3585313,14.6868251 L18.3585313,18.3585313 L3.67170626,18.3585313 L3.67170626,3.67170626 L7.34341253,3.67170626 Z" id="path-3"></path>
        <path d="M0,-0.000146868251 L0,51.4037408 L51.4038877,51.4037408 L51.4038877,11.0153391 L40.3887689,11.0153391 L40.3887689,-0.000146868251 L0,-0.000146868251 Z M3.67170626,3.67192657 L36.7170626,3.67192657 L36.7170626,11.0153391 L36.7170626,14.6866782 L40.3887689,14.6866782 L47.7321814,14.6866782 L47.7321814,47.7324017 L3.67170626,47.7324017 L3.67170626,3.67192657 Z" id="path-5"></path>
        <polygon id="path-7" points="0.289771058 0.0124140389 4.03197408 0.0124140389 4.03197408 11.3700994 8.36495464 11.3700994 8.36495464 14.6742678 0.289771058 14.6742678"></polygon>
        <polygon id="path-9" points="0.302915767 14.6743413 4.04511879 14.6743413 4.04511879 0.0124838013 0.302915767 0.0124838013"></polygon>
        <path d="M11.2237451,5.30370626 C10.5672441,4.07809071 9.40735205,3.39992657 8.00696328,3.39992657 C6.89076458,3.39992657 5.90601296,3.81593089 5.11806479,4.62554212 C4.35251404,5.41312678 4.00223326,6.31049179 4.00223326,7.51407711 C4.00223326,8.80504536 4.43990065,10.0743579 5.16212527,10.8402721 C5.88434989,11.584527 7.08793521,12.0655205 8.26949028,12.0655205 C9.93240605,12.0655205 11.1580216,11.1685227 11.5083024,9.7244406 L7.15329158,9.7244406 L7.15329158,6.72612527 L15.862946,6.72612527 L15.8849762,7.4920432 C16.0164233,11.9561073 12.493054,15.3483931 8.05065659,15.3483931 C3.69601296,15.3483931 0.260030238,11.9781339 0.260030238,7.68884665 C0.260030238,5.5882635 1.15739525,3.50934341 2.6455378,2.15264795 C4.00223326,0.905373002 6.12484665,0.117421166 8.11638013,0.117421166 C11.4862721,0.117421166 14.5719741,2.32742484 15.4252786,5.30370626 L11.2237451,5.30370626 Z" id="path-11"></path>
        <polygon id="path-13" points="0.0296673866 0.0346241901 3.77187041 0.0346241901 3.77187041 5.52749676 8.56418143 5.52749676 8.56418143 0.0346241901 12.3063844 0.0346241901 12.3063844 14.6964816 8.56418143 14.6964816 8.56418143 8.83166523 3.77187041 8.83166523 3.77187041 14.6964816 0.0296673866 14.6964816"></polygon>
        <polygon id="path-15" points="3.13200216 3.33919654 0.221440605 3.33919654 0.221440605 0.0346645788 9.7627365 0.0346645788 9.7627365 3.33919654 6.87420518 3.33919654 6.87420518 14.6965184 3.13200216 14.6965184"></polygon>
        <path d="M6.61226566,4.66912527 C6.48081857,3.68437365 6.08721166,3.24670626 5.27760043,3.24670626 C4.55537581,3.24670626 3.98626134,3.75009719 3.98626134,4.40659827 C3.98626134,4.71281857 4.11770842,5.04143629 4.35820518,5.23787257 C4.70848596,5.58815702 4.70848596,5.58815702 7.02826998,6.63863218 C9.47913391,7.75482721 10.4638855,8.95841253 10.4638855,10.8621922 C10.4638855,13.6633369 8.53807559,15.3703132 5.3429568,15.3703132 C2.76064579,15.3703132 0.966282937,14.319838 0.28811879,12.3499676 C0.0472548596,11.6938337 0.00356155508,11.2998633 0.00356155508,10.2277214 L3.76742765,10.2277214 C3.76742765,11.4529698 4.35820518,12.2188877 5.27760043,12.2188877 C6.08721166,12.2188877 6.72168251,11.6060799 6.72168251,10.8184989 C6.72168251,10.4461879 6.54654212,10.0746112 6.28401512,9.85541037 C5.84634773,9.48346652 5.84634773,9.48346652 3.46120734,8.52074514 C1.38192009,7.6674406 0.244058315,6.22299136 0.244058315,4.45029158 C0.244058315,2.02145788 2.49811879,0.0952807775 5.38665011,0.0952807775 C6.9842095,0.0952807775 8.47235205,0.73011879 9.34768683,1.78059395 C10.0041879,2.56817495 10.2450518,3.29039957 10.3324384,4.66912527 L6.61226566,4.66912527 Z" id="path-17"></path>
        <path d="M15.4350454,9.571 C14.6034039,13.0286458 11.6054557,15.3480626 8.01636285,15.3480626 C3.70541253,15.3480626 0.291827214,11.9561404 0.291827214,7.68888337 C0.291827214,3.44365659 3.66171922,0.117457883 7.97266955,0.117457883 C10.3581771,0.117457883 12.4587603,1.08017927 13.9248726,2.85288272 C14.756514,3.88132397 15.259905,4.88773866 15.4350454,5.96024406 L11.5177019,5.96024406 C10.9269244,4.3847149 9.57022894,3.39996328 7.95100648,3.39996328 C5.74063931,3.39996328 4.03366307,5.26004968 4.03366307,7.6672203 C4.03366307,10.1397473 5.76230238,12.0438942 7.97266955,12.0438942 C9.52653564,12.0438942 10.7080907,11.2122527 11.5177019,9.571 L15.4350454,9.571 Z" id="path-19"></path>
        <path d="M8.91930886,9.59765659 L7.387473,4.58651188 L5.83360691,9.59765659 L8.91930886,9.59765659 Z M5.89933045,0.0347012959 L8.85358531,0.0347012959 L14.6747084,14.6965551 L10.6262851,14.6965551 L9.90406048,12.5739417 L4.82719222,12.5739417 L4.03924406,14.6965551 L0.0128509719,14.6965551 L5.89933045,0.0347012959 Z" id="path-21"></path>
        <polygon id="path-23" points="0.0519179266 0.0346241901 3.79412095 0.0346241901 3.79412095 11.3923132 8.12710151 11.3923132 8.12710151 14.6964816 0.0519179266 14.6964816"></polygon>
        <polygon id="path-25" points="8.34321814 11.3923132 8.34321814 14.6964816 0.180831533 14.6964816 0.180831533 0.0346241901 8.34321814 0.0346241901 8.34321814 3.33915983 3.76955724 3.33915983 3.76955724 5.5932203 8.19029158 5.5932203 8.19029158 8.89738877 3.76955724 8.89738877 3.76955724 11.3923132"></polygon>
        <polygon id="path-27" points="0.358762419 0.016412527 4.09876242 0.016412527 4.09876242 11.3678596 8.3528013 11.3678596 7.03319006 14.6705594 0.358762419 14.6705594"></polygon>
        <path d="M9.13134989,9.5742311 L7.60024838,4.56565659 L6.0474838,9.5742311 L9.13134989,9.5742311 Z M6.11320734,0.016412527 L9.06562635,0.016412527 L14.8834449,14.6705594 L10.8372246,14.6705594 L10.1157343,12.5486803 L5.04143629,12.5486803 L4.25385529,14.6705594 L0.229665227,14.6705594 L6.11320734,0.016412527 Z" id="path-29"></path>
        <path d="M5.372,11.3803067 C6.57485097,11.3803067 7.23098488,10.898946 7.23098488,9.98065227 C7.23098488,9.58667819 7.03418143,9.19307127 6.72796112,8.97423758 C6.42174082,8.77743413 6.11552052,8.71171058 5.372,8.71171058 L3.60040173,8.71171058 L3.60040173,11.3803067 L5.372,11.3803067 Z M4.93469978,5.58415119 C6.00647084,5.58415119 6.5094946,5.23423758 6.5094946,4.42499352 C6.5094946,4.03138661 6.31232397,3.681473 6.00647084,3.50669978 C5.74394384,3.35322246 5.56880346,3.3315594 4.93469978,3.3315594 L3.60040173,3.3315594 L3.60040173,5.58415119 L4.93469978,5.58415119 Z M0.013511879,0.0288596112 L4.5407257,0.0288596112 C6.92476458,0.0288596112 7.90914903,0.225663067 8.69636285,0.838103672 C9.54930022,1.49423758 10.0963844,2.67542549 10.0963844,3.87827646 C10.0963844,5.12482073 9.48394384,6.17492873 8.39014255,6.8090324 C9.9869676,7.33408639 10.8178747,8.5152743 10.8178747,10.2207819 C10.8178747,11.4676933 10.3368812,12.6051879 9.46191361,13.414432 C8.39014255,14.4201123 7.38409503,14.6826393 4.67217279,14.6826393 L0.013511879,14.6826393 L0.013511879,0.0288596112 Z" id="path-31"></path>
        <path d="M6.70405832,4.64856371 C6.5729784,3.66454644 6.17900432,3.22687905 5.36976026,3.22687905 C4.64826998,3.22687905 4.07952268,3.72990281 4.07952268,4.38640389 C4.07952268,4.69225702 4.21060259,5.02050756 4.45146652,5.21731102 C4.80138013,5.56722462 4.80138013,5.56722462 7.11969546,6.61696544 C9.56909071,7.73242981 10.5534752,8.93564795 10.5534752,10.8383261 C10.5534752,13.637635 8.62876674,15.3438769 5.4354838,15.3438769 C2.85464147,15.3438769 1.06138013,14.2941361 0.383215983,12.3253672 C0.142719222,11.6696004 0.0990259179,11.2756263 0.0990259179,10.2038553 L3.86068898,10.2038553 C3.86068898,11.4287365 4.45146652,12.1942873 5.36976026,12.1942873 C6.17900432,12.1942873 6.81347516,11.5818467 6.81347516,10.7946328 C6.81347516,10.422689 6.63833477,10.0511123 6.37617495,9.83191145 C5.93850756,9.46033477 5.93850756,9.46033477 3.55446868,8.49798056 C1.47665011,7.6450432 0.339522678,6.20169546 0.339522678,4.43009719 C0.339522678,2.00236501 2.59211447,0.0772894168 5.47917711,0.0772894168 C7.07600216,0.0772894168 8.5630432,0.711760259 9.4380108,1.76150108 C10.0941447,2.5487149 10.3346415,3.27093952 10.4223952,4.64856371 L6.70405832,4.64856371 Z" id="path-33"></path>
    </defs>
    <g id="Page-1" stroke="none" stroke-width="1" fill="none" fill-rule="evenodd">
        <g id="formlogo">
            <g id="Page-1">
                <g id="Group">
                    <g id="Group-3" transform="translate(7.343413, 7.343413)">
                        <g id="Fill-1-Clipped">
                            <mask id="mask-2" fill="white">
                                <use xlink:href="#path-1"></use>
                            </mask>
                            <g id="path-1"></g>
                            <polygon id="Fill-1" fill="#FF5253" mask="url(#mask-2)" points="-1.83585313 -1.83585313 38.5529158 -1.83585313 38.5529158 38.5529158 -1.83585313 38.5529158"></polygon>
                        </g>
                    </g>
                    <g id="Group-6" transform="translate(14.686825, 14.686825)">
                        <g id="Fill-4-Clipped">
                            <mask id="mask-4" fill="white">
                                <use xlink:href="#path-3"></use>
                            </mask>
                            <g id="path-3"></g>
                            <polygon id="Fill-4" fill="#FF5253" mask="url(#mask-4)" points="-1.83585313 -1.83585313 23.8660907 -1.83585313 23.8660907 23.8660907 -1.83585313 23.8660907"></polygon>
                        </g>
                    </g>
                    <g id="Group-9">
                        <g id="Fill-7-Clipped">
                            <mask id="mask-6" fill="white">
                                <use xlink:href="#path-5"></use>
                            </mask>
                            <g id="path-5"></g>
                            <polygon id="Fill-7" fill="#FF5253" mask="url(#mask-6)" points="-1.83585313 -1.836 53.2397408 -1.836 53.2397408 53.239594 -1.83585313 53.239594"></polygon>
                        </g>
                    </g>
                    <g id="Group-12" transform="translate(58.380130, 14.686825)">
                        <g id="Fill-10-Clipped">
                            <mask id="mask-8" fill="white">
                                <use xlink:href="#path-7"></use>
                            </mask>
                            <g id="path-7"></g>
                            <polygon id="Fill-10" fill="#FF5253" mask="url(#mask-8)" points="-1.54608207 -1.82344276 10.2008078 -1.82344276 10.2008078 16.510121 -1.54608207 16.510121"></polygon>
                        </g>
                    </g>
                    <g id="Group-15" transform="translate(67.559395, 14.686825)">
                        <g id="Fill-13-Clipped">
                            <mask id="mask-10" fill="white">
                                <use xlink:href="#path-9"></use>
                            </mask>
                            <g id="path-9"></g>
                            <polygon id="Fill-13" fill="#FF5253" mask="url(#mask-10)" points="-1.53293737 -1.82336933 5.88097192 -1.82336933 5.88097192 16.5101944 -1.53293737 16.5101944"></polygon>
                        </g>
                    </g>
                    <g id="Group-18" transform="translate(72.332613, 14.319654)">
                        <g id="Fill-16-Clipped">
                            <mask id="mask-12" fill="white">
                                <use xlink:href="#path-11"></use>
                            </mask>
                            <g id="path-11"></g>
                            <polygon id="Fill-16" fill="#FF5253" mask="url(#mask-12)" points="-1.57582289 -1.71843197 17.7243909 -1.71843197 17.7243909 17.1842462 -1.57582289 17.1842462"></polygon>
                        </g>
                    </g>
                    <g id="Group-21" transform="translate(89.222462, 14.686825)">
                        <g id="Fill-19-Clipped">
                            <mask id="mask-14" fill="white">
                                <use xlink:href="#path-13"></use>
                            </mask>
                            <g id="path-13"></g>
                            <polygon id="Fill-19" fill="#FF5253" mask="url(#mask-14)" points="-1.80618575 -1.80122894 14.1422376 -1.80122894 14.1422376 16.5323348 -1.80618575 16.5323348"></polygon>
                        </g>
                    </g>
                    <g id="Group-24" transform="translate(102.440605, 14.686825)">
                        <g id="Fill-22-Clipped">
                            <mask id="mask-16" fill="white">
                                <use xlink:href="#path-15"></use>
                            </mask>
                            <g id="path-15"></g>
                            <polygon id="Fill-22" fill="#FF5253" mask="url(#mask-16)" points="-1.61441253 -1.80119222 11.5985896 -1.80119222 11.5985896 16.5323715 -1.61441253 16.5323715"></polygon>
                        </g>
                    </g>
                    <g id="Group-27" transform="translate(112.721382, 14.319654)">
                        <g id="Fill-25-Clipped">
                            <mask id="mask-18" fill="white">
                                <use xlink:href="#path-17"></use>
                            </mask>
                            <g id="path-17"></g>
                            <polygon id="Fill-25" fill="#FF5253" mask="url(#mask-18)" points="-1.83229158 -1.74057235 12.2997387 -1.74057235 12.2997387 17.2061663 -1.83229158 17.2061663"></polygon>
                        </g>
                    </g>
                    <g id="Group-30" transform="translate(123.369330, 14.319654)">
                        <g id="Fill-28-Clipped">
                            <mask id="mask-20" fill="white">
                                <use xlink:href="#path-19"></use>
                            </mask>
                            <g id="path-19"></g>
                            <polygon id="Fill-28" fill="#FF5253" mask="url(#mask-20)" points="-1.54402592 -1.71839525 17.2708985 -1.71839525 17.2708985 17.1839158 -1.54402592 17.1839158"></polygon>
                        </g>
                    </g>
                    <g id="Group-33" transform="translate(137.688985, 14.686825)">
                        <g id="Fill-31-Clipped">
                            <mask id="mask-22" fill="white">
                                <use xlink:href="#path-21"></use>
                            </mask>
                            <g id="path-21"></g>
                            <polygon id="Fill-31" fill="#FF5253" mask="url(#mask-22)" points="-1.82300216 -1.80115551 16.5105616 -1.80115551 16.5105616 16.5324082 -1.82300216 16.5324082"></polygon>
                        </g>
                    </g>
                    <g id="Group-36" transform="translate(152.742981, 14.686825)">
                        <g id="Fill-34-Clipped">
                            <mask id="mask-24" fill="white">
                                <use xlink:href="#path-23"></use>
                            </mask>
                            <g id="path-23"></g>
                            <polygon id="Fill-34" fill="#FF5253" mask="url(#mask-24)" points="-1.78393521 -1.80122894 9.96295464 -1.80122894 9.96295464 16.5323348 -1.78393521 16.5323348"></polygon>
                        </g>
                    </g>
                    <g id="Group-39" transform="translate(161.555076, 14.686825)">
                        <g id="Fill-37-Clipped">
                            <mask id="mask-26" fill="white">
                                <use xlink:href="#path-25"></use>
                            </mask>
                            <g id="path-25"></g>
                            <polygon id="Fill-37" fill="#FF5253" mask="url(#mask-26)" points="-1.6550216 -1.80122894 10.1792549 -1.80122894 10.1792549 16.5323348 -1.6550216 16.5323348"></polygon>
                        </g>
                    </g>
                    <g id="Group-42" transform="translate(58.380130, 33.045356)">
                        <g id="Fill-40-Clipped">
                            <mask id="mask-28" fill="white">
                                <use xlink:href="#path-27"></use>
                            </mask>
                            <g id="path-27"></g>
                            <polygon id="Fill-40" fill="#FF5253" mask="url(#mask-28)" points="-1.47709071 -1.8194406 10.1886544 -1.8194406 10.1886544 16.5064125 -1.47709071 16.5064125"></polygon>
                        </g>
                    </g>
                    <g id="Group-45" transform="translate(66.457883, 33.045356)">
                        <g id="Fill-43-Clipped">
                            <mask id="mask-30" fill="white">
                                <use xlink:href="#path-29"></use>
                            </mask>
                            <g id="path-29"></g>
                            <polygon id="Fill-43" fill="#FF5253" mask="url(#mask-30)" points="-1.6061879 -1.8194406 16.7192981 -1.8194406 16.7192981 16.5064125 -1.6061879 16.5064125"></polygon>
                        </g>
                    </g>
                    <g id="Group-48" transform="translate(81.879050, 33.045356)">
                        <g id="Fill-46-Clipped">
                            <mask id="mask-32" fill="white">
                                <use xlink:href="#path-31"></use>
                            </mask>
                            <g id="path-31"></g>
                            <polygon id="Fill-46" fill="#FF5253" mask="url(#mask-32)" points="-1.82234125 -1.80699352 12.6537279 -1.80699352 12.6537279 16.5184924 -1.82234125 16.5184924"></polygon>
                        </g>
                    </g>
                    <g id="Group-51" transform="translate(93.261339, 32.678186)">
                        <g id="Fill-49-Clipped">
                            <mask id="mask-34" fill="white">
                                <use xlink:href="#path-33"></use>
                            </mask>
                            <g id="path-33"></g>
                            <polygon id="Fill-49" fill="#FF5253" mask="url(#mask-34)" points="-1.73682721 -1.75856371 12.3893283 -1.75856371 12.3893283 17.17973 -1.73682721 17.17973"></polygon>
                        </g>
                    </g>
                </g>
            </g>
        </g>
    </g>
</svg>