<?xml version="1.0" encoding="UTF-8"?>
<svg width="20px" height="20px" viewBox="0 0 20 20" version="1.1" xmlns="http://www.w3.org/2000/svg" xmlns:xlink="http://www.w3.org/1999/xlink">
    <!-- Generator: Sketch 46.2 (44496) - http://www.bohemiancoding.com/sketch -->
    <title>Combined Shape</title>
    <desc>Created with Sketch.</desc>
    <defs></defs>
    <g id="✅-Sample-request" stroke="none" stroke-width="1" fill="none" fill-rule="evenodd">
        <g id="Sample-Request-1-Copy-5" transform="translate(-117.000000, -280.000000)" fill="#FF3A4F">
            <path d="M127,298 C122.589,298 119,294.411 119,290 C119,285.589 122.589,282 127,282 C131.411,282 135,285.589 135,290 C135,294.411 131.411,298 127,298 M127,280 C132.523,280 137,284.477 137,290 C137,295.523 132.523,300 127,300 C121.477,300 117,295.523 117,290 C117,284.477 121.477,280 127,280 Z M128,286 C128,285.448 127.553,285 127,285 C126.447,285 126,285.448 126,286 L126,291 C126,291.552 126.447,292 127,292 C127.553,292 128,291.552 128,291 L128,286 Z M127,295 C127.552285,295 128,294.552285 128,294 C128,293.447715 127.552285,293 127,293 C126.447715,293 126,293.447715 126,294 C126,294.552285 126.447715,295 127,295 Z" id="Combined-Shape"></path>
        </g>
    </g>
</svg>