<?xml version="1.0" encoding="UTF-8"?>
<svg width="463px" height="141px" viewBox="0 0 463 141" version="1.1" xmlns="http://www.w3.org/2000/svg" xmlns:xlink="http://www.w3.org/1999/xlink">
    <!-- Generator: Sketch 41.2 (35397) - http://www.bohemiancoding.com/sketch -->
    <title>Page 1</title>
    <desc>Created with Sketch.</desc>
    <defs>
        <path d="M70,0 L0,0 L0,100 L100,100 L100,30 L70,30 L70,0 Z M60,10 L60,30 L60,40 L70,40 L90,40 L90,90 L10,90 L10,10 L60,10 Z" id="path-1"></path>
        <path d="M30,0 L0,0 L0,60 L60,60 L60,30 L30,30 L30,0 Z M20,10 L20,30 L20,40 L30,40 L50,40 L50,50 L10,50 L10,10 L20,10 Z" id="path-3"></path>
        <path d="M0,-0.0004 L0,139.9996 L140,139.9996 L140,30.0006 L110,30.0006 L110,-0.0004 L0,-0.0004 Z M10,10.0006 L100,10.0006 L100,30.0006 L100,39.9996 L110,39.9996 L130,39.9996 L130,130.0006 L10,130.0006 L10,10.0006 Z" id="path-5"></path>
        <polygon id="path-7" points="0.7892 0.03381 10.9812 0.03381 10.9812 30.9668 22.7822 30.9668 22.7822 39.9658 0.7892 39.9658"></polygon>
        <polygon id="path-9" points="0.825 39.966 11.017 39.966 11.017 0.034 0.825 0.034"></polygon>
        <path d="M30.5682,14.4448 C28.7802,11.1068 25.6212,9.2598 21.8072,9.2598 C18.7672,9.2598 16.0852,10.3928 13.9392,12.5978 C11.8542,14.74281 10.9002,17.18681 10.9002,20.46481 C10.9002,23.9808 12.0922,27.43781 14.0592,29.5238 C16.0262,31.5508 19.3042,32.8608 22.5222,32.8608 C27.0512,32.8608 30.3892,30.4178 31.3432,26.4848 L19.4822,26.4848 L19.4822,18.3188 L43.2032,18.3188 L43.2632,20.4048 C43.6212,32.56281 34.0252,41.8018 21.9262,41.8018 C10.0662,41.8018 0.7082,32.6228 0.7082,20.9408 C0.7082,15.2198 3.1522,9.5578 7.2052,5.8628 C10.9002,2.46581 16.6812,0.3198 22.1052,0.3198 C31.2832,0.3198 39.6872,6.33881 42.0112,14.4448 L30.5682,14.4448 Z" id="path-11"></path>
        <polygon id="path-13" points="0.0808 0.0943 10.2728 0.0943 10.2728 15.0543 23.3248 15.0543 23.3248 0.0943 33.5168 0.0943 33.5168 40.0263 23.3248 40.0263 23.3248 24.0533 10.2728 24.0533 10.2728 40.0263 0.0808 40.0263"></polygon>
        <polygon id="path-15" points="8.5301 9.0944 0.6031 9.0944 0.6031 0.09441 26.5891 0.09441 26.5891 9.0944 18.7221 9.0944 18.7221 40.0264 8.5301 40.0264"></polygon>
        <path d="M18.0087,12.7165 C17.6507,10.0345 16.5787,8.8425 14.3737,8.8425 C12.4067,8.8425 10.8567,10.2135 10.8567,12.0015 C10.8567,12.8355 11.2147,13.7305 11.8697,14.2655 C12.8237,15.21951 12.8237,15.21951 19.1417,18.08051 C25.8167,21.1205 28.4987,24.3985 28.4987,29.5835 C28.4987,37.2125 23.2537,41.8615 14.5517,41.8615 C7.5187,41.8615 2.6317,39.0005 0.7847,33.6355 C0.1287,31.8485 0.0097,30.77551 0.0097,27.8555 L10.2607,27.8555 C10.2607,31.1925 11.8697,33.2785 14.3737,33.2785 C16.5787,33.2785 18.3067,31.6095 18.3067,29.4645 C18.3067,28.4505 17.8297,27.4385 17.1147,26.8415 C15.9227,25.8285 15.9227,25.8285 9.4267,23.2065 C3.7637,20.8825 0.6647,16.9485 0.6647,12.1205 C0.6647,5.5055 6.8037,0.2595 14.6707,0.2595 C19.0217,0.2595 23.0747,1.9885 25.4587,4.8495 C27.2467,6.9945 27.9027,8.9615 28.1407,12.7165 L18.0087,12.7165 Z" id="path-17"></path>
        <path d="M42.0378,26.0669 C39.7728,35.4839 31.6078,41.8009 21.8328,41.8009 C10.0918,41.8009 0.7948,32.5629 0.7948,20.9409 C0.7948,9.3789 9.9728,0.3199 21.7138,0.3199 C28.2108,0.3199 33.9318,2.9419 37.9248,7.76991 C40.1898,10.5709 41.5608,13.3119 42.0378,16.2329 L31.3688,16.2329 C29.7598,11.9419 26.0648,9.2599 21.6548,9.2599 C15.6348,9.2599 10.9858,14.3259 10.9858,20.8819 C10.9858,27.6159 15.6938,32.8019 21.7138,32.8019 C25.9458,32.8019 29.1638,30.5369 31.3688,26.0669 L42.0378,26.0669 Z" id="path-19"></path>
        <path d="M24.292,26.1395 L20.12,12.4915 L15.888,26.1395 L24.292,26.1395 Z M16.067,0.09451 L24.113,0.09451 L39.967,40.0265 L28.941,40.0265 L26.974,34.2455 L13.147,34.2455 L11.001,40.0265 L0.035,40.0265 L16.067,0.09451 Z" id="path-21"></path>
        <polygon id="path-23" points="0.1414 0.0943 10.3334 0.0943 10.3334 31.0273 22.1344 31.0273 22.1344 40.0263 0.1414 40.0263"></polygon>
        <polygon id="path-25" points="22.723 31.0273 22.723 40.0263 0.4925 40.0263 0.4925 0.0943 22.723 0.0943 22.723 9.0943 10.2665 9.0943 10.2665 15.2333 22.3065 15.2333 22.3065 24.2323 10.2665 24.2323 10.2665 31.0273 22.723 31.0273"></polygon>
        <polygon id="path-27" points="0.9771 0.0447 11.1631 0.0447 11.1631 30.9607 22.7491 30.9607 19.1551 39.9557 0.9771 39.9557"></polygon>
        <path d="M24.8695,26.0757 L20.6995,12.4347 L16.4705,26.0757 L24.8695,26.0757 Z M16.6495,0.0447 L24.6905,0.0447 L40.5355,39.9557 L29.5155,39.9557 L27.5505,34.1767 L13.7305,34.1767 L11.5855,39.9557 L0.6255,39.9557 L16.6495,0.0447 Z" id="path-29"></path>
        <path d="M14.6308,30.9946 C17.9068,30.9946 19.6938,29.6836 19.6938,27.1826 C19.6938,26.1096 19.1578,25.0376 18.3238,24.4416 C17.4898,23.9056 16.6558,23.7266 14.6308,23.7266 L9.8058,23.7266 L9.8058,30.9946 L14.6308,30.9946 Z M13.4398,15.2086 C16.3588,15.2086 17.7288,14.2556 17.7288,12.0516 C17.7288,10.9796 17.1918,10.0266 16.3588,9.5506 C15.6438,9.1326 15.1668,9.0736 13.4398,9.0736 L9.8058,9.0736 L9.8058,15.2086 L13.4398,15.2086 Z M0.0368,0.0786 L12.3668,0.0786 C18.8598,0.0786 21.5408,0.6146 23.6848,2.2826 C26.0078,4.0696 27.4978,7.2866 27.4978,10.5626 C27.4978,13.9576 25.8298,16.8176 22.8508,18.5446 C27.1998,19.9746 29.4628,23.1916 29.4628,27.8366 C29.4628,31.2326 28.1528,34.3306 25.7698,36.5346 C22.8508,39.2736 20.1108,39.9886 12.7248,39.9886 L0.0368,39.9886 L0.0368,0.0786 Z" id="path-31"></path>
        <path d="M18.2587,12.6605 C17.9017,9.9805 16.8287,8.7885 14.6247,8.7885 C12.6597,8.7885 11.1107,10.1585 11.1107,11.9465 C11.1107,12.7795 11.4677,13.6735 12.1237,14.2095 C13.0767,15.1625 13.0767,15.1625 19.3907,18.0215 C26.0617,21.0595 28.7427,24.3365 28.7427,29.5185 C28.7427,37.1425 23.5007,41.7895 14.8037,41.7895 C7.7747,41.7895 2.8907,38.9305 1.0437,33.5685 C0.3887,31.7825 0.2697,30.7095 0.2697,27.7905 L10.5147,27.7905 C10.5147,31.1265 12.1237,33.2115 14.6247,33.2115 C16.8287,33.2115 18.5567,31.5435 18.5567,29.3995 C18.5567,28.3865 18.0797,27.3745 17.3657,26.7775 C16.1737,25.7655 16.1737,25.7655 9.6807,23.1445 C4.0217,20.8215 0.9247,16.8905 0.9247,12.0655 C0.9247,5.4535 7.0597,0.2105 14.9227,0.2105 C19.2717,0.2105 23.3217,1.9385 25.7047,4.7975 C27.4917,6.9415 28.1467,8.9085 28.3857,12.6605 L18.2587,12.6605 Z" id="path-33"></path>
    </defs>
    <g id="Page-1" stroke="none" stroke-width="1" fill="none" fill-rule="evenodd">
        <g transform="translate(0.000000, 1.000000)">
            <g id="Group-3" transform="translate(20.000000, 20.000000)">
                <mask id="mask-2" fill="white">
                    <use xlink:href="#path-1"></use>
                </mask>
                <g id="Clip-2"></g>
                <polygon id="Fill-1" fill="#FF5253" mask="url(#mask-2)" points="-5 -5 105 -5 105 105 -5 105"></polygon>
            </g>
            <g id="Group-6" transform="translate(40.000000, 40.000000)">
                <mask id="mask-4" fill="white">
                    <use xlink:href="#path-3"></use>
                </mask>
                <g id="Clip-5"></g>
                <polygon id="Fill-4" fill="#FF5253" mask="url(#mask-4)" points="-5 -5 65 -5 65 65 -5 65"></polygon>
            </g>
            <g id="Group-9">
                <mask id="mask-6" fill="white">
                    <use xlink:href="#path-5"></use>
                </mask>
                <g id="Clip-8"></g>
                <polygon id="Fill-7" fill="#FF5253" mask="url(#mask-6)" points="-5 -5.0004 145 -5.0004 145 144.9996 -5 144.9996"></polygon>
            </g>
            <g id="Group-12" transform="translate(159.000000, 40.000000)">
                <mask id="mask-8" fill="white">
                    <use xlink:href="#path-7"></use>
                </mask>
                <g id="Clip-11"></g>
                <polygon id="Fill-10" fill="#FF5253" mask="url(#mask-8)" points="-4.2108 -4.9662 27.7822 -4.9662 27.7822 44.9658 -4.2108 44.9658"></polygon>
            </g>
            <g id="Group-15" transform="translate(184.000000, 40.000000)">
                <mask id="mask-10" fill="white">
                    <use xlink:href="#path-9"></use>
                </mask>
                <g id="Clip-14"></g>
                <polygon id="Fill-13" fill="#FF5253" mask="url(#mask-10)" points="-4.175 -4.966 16.017 -4.966 16.017 44.966 -4.175 44.966"></polygon>
            </g>
            <g id="Group-18" transform="translate(197.000000, 39.000000)">
                <mask id="mask-12" fill="white">
                    <use xlink:href="#path-11"></use>
                </mask>
                <g id="Clip-17"></g>
                <polygon id="Fill-16" fill="#FF5253" mask="url(#mask-12)" points="-4.2918 -4.6802 48.2729 -4.6802 48.2729 46.8018 -4.2918 46.8018"></polygon>
            </g>
            <g id="Group-21" transform="translate(243.000000, 40.000000)">
                <mask id="mask-14" fill="white">
                    <use xlink:href="#path-13"></use>
                </mask>
                <g id="Clip-20"></g>
                <polygon id="Fill-19" fill="#FF5253" mask="url(#mask-14)" points="-4.9192 -4.9057 38.5168 -4.9057 38.5168 45.0263 -4.9192 45.0263"></polygon>
            </g>
            <g id="Group-24" transform="translate(279.000000, 40.000000)">
                <mask id="mask-16" fill="white">
                    <use xlink:href="#path-15"></use>
                </mask>
                <g id="Clip-23"></g>
                <polygon id="Fill-22" fill="#FF5253" mask="url(#mask-16)" points="-4.3969 -4.9056 31.5891 -4.9056 31.5891 45.0264 -4.3969 45.0264"></polygon>
            </g>
            <g id="Group-27" transform="translate(307.000000, 39.000000)">
                <mask id="mask-18" fill="white">
                    <use xlink:href="#path-17"></use>
                </mask>
                <g id="Clip-26"></g>
                <polygon id="Fill-25" fill="#FF5253" mask="url(#mask-18)" points="-4.9903 -4.7405 33.4987 -4.7405 33.4987 46.8615 -4.9903 46.8615"></polygon>
            </g>
            <g id="Group-30" transform="translate(336.000000, 39.000000)">
                <mask id="mask-20" fill="white">
                    <use xlink:href="#path-19"></use>
                </mask>
                <g id="Clip-29"></g>
                <polygon id="Fill-28" fill="#FF5253" mask="url(#mask-20)" points="-4.2052 -4.6801 47.0378 -4.6801 47.0378 46.8009 -4.2052 46.8009"></polygon>
            </g>
            <g id="Group-33" transform="translate(375.000000, 40.000000)">
                <mask id="mask-22" fill="white">
                    <use xlink:href="#path-21"></use>
                </mask>
                <g id="Clip-32"></g>
                <polygon id="Fill-31" fill="#FF5253" mask="url(#mask-22)" points="-4.965 -4.9055 44.967 -4.9055 44.967 45.0265 -4.965 45.0265"></polygon>
            </g>
            <g id="Group-36" transform="translate(416.000000, 40.000000)">
                <mask id="mask-24" fill="white">
                    <use xlink:href="#path-23"></use>
                </mask>
                <g id="Clip-35"></g>
                <polygon id="Fill-34" fill="#FF5253" mask="url(#mask-24)" points="-4.8586 -4.9057 27.1344 -4.9057 27.1344 45.0263 -4.8586 45.0263"></polygon>
            </g>
            <g id="Group-39" transform="translate(440.000000, 40.000000)">
                <mask id="mask-26" fill="white">
                    <use xlink:href="#path-25"></use>
                </mask>
                <g id="Clip-38"></g>
                <polygon id="Fill-37" fill="#FF5253" mask="url(#mask-26)" points="-4.5075 -4.9057 27.7235 -4.9057 27.7235 45.0263 -4.5075 45.0263"></polygon>
            </g>
            <g id="Group-42" transform="translate(159.000000, 90.000000)">
                <mask id="mask-28" fill="white">
                    <use xlink:href="#path-27"></use>
                </mask>
                <g id="Clip-41"></g>
                <polygon id="Fill-40" fill="#FF5253" mask="url(#mask-28)" points="-4.0229 -4.9553 27.7491 -4.9553 27.7491 44.9557 -4.0229 44.9557"></polygon>
            </g>
            <g id="Group-45" transform="translate(181.000000, 90.000000)">
                <mask id="mask-30" fill="white">
                    <use xlink:href="#path-29"></use>
                </mask>
                <g id="Clip-44"></g>
                <polygon id="Fill-43" fill="#FF5253" mask="url(#mask-30)" points="-4.3745 -4.9553 45.5355 -4.9553 45.5355 44.9557 -4.3745 44.9557"></polygon>
            </g>
            <g id="Group-48" transform="translate(223.000000, 90.000000)">
                <mask id="mask-32" fill="white">
                    <use xlink:href="#path-31"></use>
                </mask>
                <g id="Clip-47"></g>
                <polygon id="Fill-46" fill="#FF5253" mask="url(#mask-32)" points="-4.9632 -4.9214 34.4628 -4.9214 34.4628 44.9886 -4.9632 44.9886"></polygon>
            </g>
            <g id="Group-51" transform="translate(254.000000, 89.000000)">
                <mask id="mask-34" fill="white">
                    <use xlink:href="#path-33"></use>
                </mask>
                <g id="Clip-50"></g>
                <polygon id="Fill-49" fill="#FF5253" mask="url(#mask-34)" points="-4.7303 -4.7895 33.7427 -4.7895 33.7427 46.7895 -4.7303 46.7895"></polygon>
            </g>
        </g>
    </g>
</svg>
