<?xml version="1.0" encoding="UTF-8"?>
<svg width="12px" height="12px" viewBox="0 0 12 12" version="1.1" xmlns="http://www.w3.org/2000/svg" xmlns:xlink="http://www.w3.org/1999/xlink">
    <!-- Generator: Sketch 47.1 (45422) - http://www.bohemiancoding.com/sketch -->
    <title>Instagram Pink</title>
    <desc>Created with Sketch.</desc>
    <defs></defs>
    <g id="Symbols" stroke="none" stroke-width="1" fill="none" fill-rule="evenodd">
        <g id="Footer" transform="translate(-680.000000, -592.000000)" fill="#E83D98">
            <g id="Group-2" transform="translate(100.000000, 100.000000)">
                <g id="Instagram-Pink" transform="translate(580.000000, 492.000000)">
                    <path d="M6.00001191,0 C4.37049784,0 4.16617147,0.00690694088 3.52620767,0.0361066289 C2.88757763,0.0652348658 2.45141622,0.166671629 2.06977201,0.315004138 C1.67521897,0.468314409 1.34061341,0.67347437 1.00703198,1.00703198 C0.67347437,1.34061341 0.468314409,1.67521897 0.315004138,2.06977201 C0.166671629,2.45141622 0.0652348658,2.88757763 0.0361066289,3.52620767 C0.00690694088,4.16617147 0,4.37049784 0,6.00001191 C0,7.62950216 0.00690694088,7.83382853 0.0361066289,8.47379233 C0.0652348658,9.11242237 0.166671629,9.54858378 0.315004138,9.93022799 C0.468314409,10.324781 0.67347437,10.6593866 1.00703198,10.992968 C1.34061341,11.3265256 1.67521897,11.5316856 2.06977201,11.6850197 C2.45141622,11.8333284 2.88757763,11.9347651 3.52620767,11.9638934 C4.16617147,11.9930931 4.37049784,12 6.00001191,12 C7.62950216,12 7.83382853,11.9930931 8.47379233,11.9638934 C9.11242237,11.9347651 9.54858378,11.8333284 9.93022799,11.6850197 C10.324781,11.5316856 10.6593866,11.3265256 10.992968,10.992968 C11.3265256,10.6593866 11.5316856,10.324781 11.6850197,9.93022799 C11.8333284,9.54858378 11.9347651,9.11242237 11.9638934,8.47379233 C11.9930931,7.83382853 12,7.62950216 12,6.00001191 C12,4.37049784 11.9930931,4.16617147 11.9638934,3.52620767 C11.9347651,2.88757763 11.8333284,2.45141622 11.6850197,2.06977201 C11.5316856,1.67521897 11.3265256,1.34061341 10.992968,1.00703198 C10.6593866,0.67347437 10.324781,0.468314409 9.93022799,0.315004138 C9.54858378,0.166671629 9.11242237,0.0652348658 8.47379233,0.0361066289 C7.83382853,0.00690694088 7.62950216,0 6.00001191,0 Z M6.00001191,1.08107915 C7.60206494,1.08107915 7.79183909,1.08720013 8.42451488,1.11606638 C9.00950895,1.14274146 9.32720442,1.24048658 9.53862826,1.32265536 C9.8186928,1.43149922 10.0185654,1.56151643 10.2285126,1.77148743 C10.4384836,1.98143462 10.5685008,2.1813072 10.6773446,2.46137174 C10.7595134,2.67279558 10.8572585,2.99049105 10.8839336,3.57548512 C10.9127999,4.20816091 10.9189209,4.39793506 10.9189209,6.00001191 C10.9189209,7.60206494 10.9127999,7.79183909 10.8839336,8.42451488 C10.8572585,9.00950895 10.7595134,9.32720442 10.6773446,9.53862826 C10.5685008,9.8186928 10.4384836,10.0185654 10.2285126,10.2285126 C10.0185654,10.4384836 9.8186928,10.5685008 9.53862826,10.6773446 C9.32720442,10.7595134 9.00950895,10.8572585 8.42451488,10.8839336 C7.79193436,10.9127999 7.60218402,10.9189209 6.00001191,10.9189209 C4.39781598,10.9189209 4.20808946,10.9127999 3.57548512,10.8839336 C2.99049105,10.8572585 2.67279558,10.7595134 2.46137174,10.6773446 C2.1813072,10.5685008 1.98143462,10.4384836 1.77148743,10.2285126 C1.56154025,10.0185654 1.43149922,9.8186928 1.32265536,9.53862826 C1.24048658,9.32720442 1.14274146,9.00950895 1.11606638,8.42451488 C1.08720013,7.79183909 1.08107915,7.60206494 1.08107915,6.00001191 C1.08107915,4.39793506 1.08720013,4.20816091 1.11606638,3.57548512 C1.14274146,2.99049105 1.24048658,2.67279558 1.32265536,2.46137174 C1.43149922,2.1813072 1.56151643,1.98143462 1.77148743,1.77148743 C1.98143462,1.56151643 2.1813072,1.43149922 2.46137174,1.32265536 C2.67279558,1.24048658 2.99049105,1.14274146 3.57548512,1.11606638 C4.20816091,1.08720013 4.39793506,1.08107915 6.00001191,1.08107915 L6.00001191,1.08107915 Z" id="Fill-1"></path>
                    <path d="M6.0000116,7.94736964 C4.92449242,7.94736964 4.05263036,7.07550758 4.05263036,6.0000116 C4.05263036,4.92449242 4.92449242,4.05263036 6.0000116,4.05263036 C7.07550758,4.05263036 7.94736964,4.92449242 7.94736964,6.0000116 C7.94736964,7.07550758 7.07550758,7.94736964 6.0000116,7.94736964 Z M6.0000116,3 C4.3431351,3 3,4.3431351 3,6.0000116 C3,7.6568649 4.3431351,9 6.0000116,9 C7.6568649,9 9,7.6568649 9,6.0000116 C9,4.3431351 7.6568649,3 6.0000116,3 L6.0000116,3 Z" id="Fill-4"></path>
                    <path d="M10,2.80001323 C10,3.24184516 9.64181869,3.6 9.19998677,3.6 C8.75818131,3.6 8.4,3.24184516 8.4,2.80001323 C8.4,2.35818131 8.75818131,2 9.19998677,2 C9.64181869,2 10,2.35818131 10,2.80001323" id="Fill-5"></path>
                </g>
            </g>
        </g>
    </g>
</svg>