<?xml version="1.0" encoding="UTF-8"?>
<svg width="11px" height="11px" viewBox="0 0 11 11" version="1.1" xmlns="http://www.w3.org/2000/svg" xmlns:xlink="http://www.w3.org/1999/xlink">
    <!-- Generator: Sketch 47.1 (45422) - http://www.bohemiancoding.com/sketch -->
    <title>Facebook Blue</title>
    <desc>Created with Sketch.</desc>
    <defs></defs>
    <g id="Symbols" stroke="none" stroke-width="1" fill="none" fill-rule="evenodd">
        <g id="Footer" transform="translate(-680.000000, -619.000000)" fill="#1C6BFF">
            <g id="Group-2" transform="translate(100.000000, 100.000000)">
                <path d="M590.392905,519 L580.607095,519 C580.271771,519 580,519.27177 580,519.607093 L580,529.392866 C580,529.728148 580.271771,530 580.607095,530 L585.875467,530 L585.875467,525.740212 L584.441932,525.740212 L584.441932,524.080084 L585.875467,524.080084 L585.875467,522.855801 C585.875467,521.435047 586.743205,520.661406 588.010645,520.661406 C588.617781,520.661406 589.139561,520.706577 589.291603,520.726773 L589.291603,522.211574 L588.412572,522.211986 C587.723295,522.211986 587.5898,522.539519 587.5898,523.020165 L587.5898,524.080084 L589.233737,524.080084 L589.019708,525.740212 L587.5898,525.740212 L587.5898,530 L590.392905,530 C590.728188,530 591,529.728148 591,529.392866 L591,519.607093 C591,519.27177 590.728188,519 590.392905,519" id="Facebook-Blue"></path>
            </g>
        </g>
    </g>
</svg>