<?xml version="1.0" encoding="UTF-8"?>
<svg width="12px" height="10px" viewBox="0 0 12 10" version="1.1" xmlns="http://www.w3.org/2000/svg" xmlns:xlink="http://www.w3.org/1999/xlink">
    <!-- Generator: Sketch 47.1 (45422) - http://www.bohemiancoding.com/sketch -->
    <title>Twitter Blue</title>
    <desc>Created with Sketch.</desc>
    <defs></defs>
    <g id="Symbols" stroke="none" stroke-width="1" fill="none" fill-rule="evenodd">
        <g id="Footer" transform="translate(-680.000000, -647.000000)" fill="#6BD5C8">
            <g id="Group-2" transform="translate(100.000000, 100.000000)">
                <path d="M583.77376,556.428571 C588.30208,556.428571 590.778832,552.800802 590.778832,549.654817 C590.778832,549.551776 590.778832,549.4492 590.77168,549.347087 C591.253504,549.010071 591.669424,548.592803 592,548.114778 C591.550672,548.307306 591.073984,548.433601 590.58592,548.489345 C591.099856,548.191827 591.484576,547.723874 591.66832,547.172561 C591.185008,547.449888 590.656336,547.645294 590.104912,547.750423 C589.17256,546.791728 587.612944,546.745453 586.621504,547.647058 C585.982096,548.228494 585.7108,549.094963 585.90928,549.921701 C583.929712,549.825762 582.08536,548.921604 580.8352,547.434339 C580.181728,548.52216 580.51552,549.913764 581.59744,550.612351 C581.205616,550.601119 580.822384,550.498913 580.48,550.314369 L580.48,550.344538 C580.480336,551.477799 581.306416,552.453852 582.4552,552.678267 C582.092752,552.773881 581.712448,552.787852 581.34352,552.719112 C581.666032,553.688946 582.590368,554.353279 583.64368,554.372402 C582.771856,555.034971 581.69488,555.394639 580.58608,555.393525 C580.390192,555.393153 580.194496,555.381689 580,555.359178 C581.125888,556.057858 582.435952,556.428432 583.77376,556.426715" id="Twitter-Blue"></path>
            </g>
        </g>
    </g>
</svg>