<?xml version="1.0" encoding="UTF-8"?>
<svg width="48px" height="48px" viewBox="0 0 48 48" version="1.1" xmlns="http://www.w3.org/2000/svg" xmlns:xlink="http://www.w3.org/1999/xlink">
    <!-- Generator: Sketch 47 (45396) - http://www.bohemiancoding.com/sketch -->
    <title>Radiant</title>
    <desc>Created with Sketch.</desc>
    <defs></defs>
    <g id="Symbols" stroke="none" stroke-width="1" fill="none" fill-rule="evenodd">
        <g id="Footer" transform="translate(-100.000000, -560.000000)" fill="#FF3A4F">
            <g id="Group-2" transform="translate(100.000000, 100.000000)">
                <path d="M0,460 L37.7142857,460 L37.7142857,470.286057 L48,470.286057 L48,508 L0,508 L0,460 Z M3.42857143,463.428914 L3.42857143,504.571771 L44.5714286,504.571771 L44.5714286,473.714286 L37.7142857,473.714286 L34.2857143,473.714286 L34.2857143,470.286057 L34.2857143,463.428914 L3.42857143,463.428914 Z M30.8571429,466.85728 L30.8571429,477.142994 L41.1428571,477.142994 L41.1428571,501.142994 L6.85714286,501.142994 L6.85714286,466.85728 L30.8571429,466.85728 Z M27.4285714,470.285851 L10.2857143,470.285851 L10.2857143,497.714423 L37.7142857,497.714423 L37.7142857,480.571566 L30.8571429,480.571566 L27.4285714,480.571566 L27.4285714,477.142994 L27.4285714,470.285851 Z M24,473.714423 L24,484.000137 L34.2857143,484.000137 L34.2857143,494.285851 L13.7142857,494.285851 L13.7142857,473.714423 L24,473.714423 Z M20.5714286,477.142994 L17.1428571,477.142994 L17.1428571,490.85728 L30.8571429,490.85728 L30.8571429,487.428709 L24,487.428709 L20.5714286,487.428709 L20.5714286,484.000137 L20.5714286,477.142994 Z" id="Radiant"></path>
            </g>
        </g>
    </g>
</svg>