<?xml version="1.0" encoding="UTF-8"?>
<svg width="160px" height="48px" viewBox="0 0 160 48" version="1.1" xmlns="http://www.w3.org/2000/svg" xmlns:xlink="http://www.w3.org/1999/xlink">
    <!-- Generator: Sketch 46.2 (44496) - http://www.bohemiancoding.com/sketch -->
    <title>Lightscale logo</title>
    <desc>Created with Sketch.</desc>
    <defs></defs>
    <g id="✅-Sample-request" stroke="none" stroke-width="1" fill="none" fill-rule="evenodd">
        <g id="Sample-Request-1-Copy-4" transform="translate(-100.000000, -60.000000)" fill="#FF3A4F">
            <g id="Lightscale-logo" transform="translate(100.000000, 60.000000)">
                <path d="M0,-0.00013622857 L37.9699394,-0.00013622857 L37.9699394,10.2173471 L48.3253775,10.2173471 L48.3253775,47.6798632 L0,47.6798632 L0,-0.00013622857 Z M3.45181268,3.40591859 L3.45181268,44.2744896 L44.8735648,44.2744896 L44.8735648,13.6227208 L37.9699394,13.6227208 L34.5181268,13.6227208 L34.5181268,10.2173471 L34.5181268,3.40591859 L3.45181268,3.40591859 Z M31.0663141,6.81142849 L31.0663141,17.0285712 L41.4217521,17.0285712 L41.4217521,40.868571 L6.90362535,40.868571 L6.90362535,6.81142849 L31.0663141,6.81142849 Z M27.6145014,10.2171427 L10.355438,10.2171427 L10.355438,37.4628567 L37.9699394,37.4628567 L37.9699394,20.4342855 L31.0663141,20.4342855 L27.6145014,20.4342855 L27.6145014,17.0285712 L27.6145014,10.2171427 Z M24.1626887,13.622857 L24.1626887,23.8399997 L34.5181268,23.8399997 L34.5181268,34.0571425 L13.8072507,34.0571425 L13.8072507,13.622857 L24.1626887,13.622857 Z M20.7108761,17.0285712 L17.2590634,17.0285712 L17.2590634,30.6514282 L31.0663141,30.6514282 L31.0663141,27.245714 L24.1626887,27.245714 L20.7108761,27.245714 L20.7108761,23.8399997 L20.7108761,17.0285712 Z" id="Combined-Shape"></path>
                <path d="M78.5522798,18.2017717 C77.9350957,17.0649443 76.844668,16.4359088 75.5281467,16.4359088 C74.4787956,16.4359088 73.5530195,16.8217763 72.8122605,17.5727363 C72.0925575,18.303262 71.7632546,19.1356185 71.7632546,20.2520117 C71.7632546,21.4494608 72.1747107,22.6268162 72.8536822,23.3372482 C73.5326538,24.0275865 74.664158,24.473735 75.7749513,24.473735 C77.3382772,24.473735 78.4904923,23.641719 78.8197952,22.3022516 L74.7256002,22.3022516 L74.7256002,19.5211454 L82.9136451,19.5211454 L82.934356,20.2315774 C83.0579308,24.3722448 79.7455714,27.5187841 75.5692232,27.5187841 C71.4753734,27.5187841 68.2451671,24.392679 68.2451671,20.4141237 C68.2451671,18.4657145 69.0887901,16.5373991 70.4878098,15.2789877 C71.7632546,14.1220666 73.7587475,13.3912003 75.6310107,13.3912003 C78.7990844,13.3912003 81.6999877,15.4410997 82.502189,18.2017717 L78.5522798,18.2017717 Z M83.9069387,13.6549729 L87.4250262,13.6549729 L87.4250262,18.7499214 L91.9303321,18.7499214 L91.9303321,13.6549729 L95.4484196,13.6549729 L95.4484196,27.254671 L91.9303321,27.254671 L91.9303321,21.8147236 L87.4250262,21.8147236 L87.4250262,27.254671 L83.9069387,27.254671 L83.9069387,13.6549729 Z M99.2500044,16.7201498 L96.5137525,16.7201498 L96.5137525,13.6550069 L105.483633,13.6550069 L105.483633,16.7201498 L102.768092,16.7201498 L102.768092,27.2547051 L99.2500044,27.2547051 L99.2500044,16.7201498 Z M112.186915,17.6131621 C112.06334,16.6997495 111.693306,16.2937884 110.932181,16.2937884 C110.25321,16.2937884 109.718179,16.7607118 109.718179,17.3696535 C109.718179,17.6536901 109.841754,17.9585015 110.067847,18.1407072 C110.39715,18.4656124 110.39715,18.4656124 112.578005,19.4399872 C114.88209,20.4753243 115.807867,21.5917175 115.807867,23.3575803 C115.807867,25.9557997 113.997391,27.5391163 110.993623,27.5391163 C108.565964,27.5391163 106.879063,26.5647414 106.241513,24.7375757 C106.015074,24.1289746 105.973997,23.7635414 105.973997,22.7690729 L109.512451,22.7690729 C109.512451,23.9055597 110.067847,24.6159917 110.932181,24.6159917 C111.693306,24.6159917 112.289779,24.047578 112.289779,23.3170523 C112.289779,22.9717129 112.125128,22.6270546 111.878323,22.4237335 C111.466867,22.0787346 111.466867,22.0787346 109.224569,21.1857563 C107.269808,20.3942683 106.200091,19.0544604 106.200091,17.4101815 C106.200091,15.1573015 108.319159,13.3706638 111.0347,13.3706638 C112.536584,13.3706638 113.935603,13.9595118 114.758516,14.9338867 C115.3757,15.6644124 115.602139,16.3343164 115.684292,17.6131621 L112.186915,17.6131621 Z M130.491567,22.1599268 C129.709731,25.3670879 126.891326,27.5184776 123.51718,27.5184776 C119.464406,27.5184776 116.255256,24.3722788 116.255256,20.4141577 C116.255256,16.4764709 119.42333,13.3912344 123.476103,13.3912344 C125.718746,13.3912344 127.693528,14.2842126 129.071836,15.9284915 C129.853672,16.882432 130.326916,17.8159383 130.491567,18.8107474 L126.808828,18.8107474 C126.253431,17.3493555 124.977987,16.4359429 123.455737,16.4359429 C121.377746,16.4359429 119.772998,18.1612777 119.772998,20.394064 C119.772998,22.687472 121.398112,24.4536754 123.476103,24.4536754 C124.93691,24.4536754 126.047703,23.6822811 126.808828,22.1599268 L130.491567,22.1599268 Z M134.989003,13.655041 L137.766331,13.655041 L143.238835,27.2547391 L139.432866,27.2547391 L138.753895,25.2858957 L133.981074,25.2858957 L133.240315,27.2547391 L129.455057,27.2547391 L134.989003,13.655041 Z M143.644216,13.6549729 L147.162303,13.6549729 L147.162303,24.1898688 L151.235788,24.1898688 L151.235788,27.254671 L143.644216,27.254671 L143.644216,13.6549729 Z M152.04976,13.6549729 L159.723484,13.6549729 L159.723484,16.7201157 L155.423561,16.7201157 L155.423561,18.8108837 L159.579544,18.8108837 L159.579544,21.8756859 L155.423561,21.8756859 L155.423561,24.1898688 L159.723484,24.1898688 L159.723484,27.254671 L152.04976,27.254671 L152.04976,13.6549729 Z M55.2210982,30.6666518 L58.7371146,30.6666518 L58.7371146,41.1957579 L62.7363847,41.1957579 L61.4958033,44.2591979 L55.2210982,44.2591979 L55.2210982,30.6666518 Z M68.224905,30.6666518 L71.0005075,30.6666518 L76.4699047,44.2591979 L72.6660072,44.2591979 L71.987726,42.2910356 L67.2173208,42.2910356 L66.476907,44.2591979 L62.6937203,44.2591979 L68.224905,30.6666518 Z M76.9881254,30.6781971 L81.2442104,30.6781971 C83.4854724,30.6781971 84.4109033,30.8607434 85.150972,31.4288166 C85.9528281,32.0374177 86.4671482,33.133036 86.4671482,34.248748 C86.4671482,35.4049879 85.8913858,36.3790222 84.8630908,36.9671891 C86.3642841,37.4542062 87.1454293,38.5498245 87.1454293,40.1317787 C87.1454293,41.2883593 86.6932419,42.3434496 85.8706749,43.094069 C84.8630908,44.0268941 83.9172941,44.2704027 81.3677853,44.2704027 L76.9881254,44.2704027 L76.9881254,30.6781971 Z M93.9786032,34.6226613 C93.8553735,33.7099299 93.484994,33.3039688 92.7242145,33.3039688 C92.0459333,33.3039688 91.5112475,33.7705516 91.5112475,34.3794933 C91.5112475,34.6631893 91.6344772,34.9676602 91.8609161,35.1502065 C92.1898739,35.474771 92.1898739,35.474771 94.3693484,36.4484647 C96.6720526,37.4831207 97.5974836,38.5991733 97.5974836,40.3640144 C97.5974836,42.9605309 95.7880434,44.5431664 92.7860019,44.5431664 C90.3597228,44.5431664 88.6738575,43.5694726 88.0363077,41.7433287 C87.8102139,41.1350681 87.7691374,40.769635 87.7691374,39.775507 L91.3055195,39.775507 C91.3055195,40.9116532 91.8609161,41.6217447 92.7242145,41.6217447 C93.484994,41.6217447 94.0814672,41.0536715 94.0814672,40.3234864 C94.0814672,39.9784875 93.9168158,39.6338293 93.6703563,39.4305081 C93.2589003,39.0858498 93.2589003,39.0858498 91.0176383,38.1932121 C89.0642575,37.4020647 87.9952311,36.0632784 87.9952311,34.4200213 C87.9952311,32.1681631 90.1129182,30.3825471 92.8270785,30.3825471 C94.3282718,30.3825471 95.726256,30.9710545 96.5488229,31.9447482 C97.1656618,32.6749333 97.3917556,33.3448373 97.4742539,34.6226613 L93.9786032,34.6226613 Z M55.1562386,13.6343683 L58.6743261,13.6343683 L58.6743261,24.1692642 L62.7478102,24.1692642 L62.7478102,27.2340664 L55.1562386,27.2340664 L55.1562386,13.6343683 Z M63.7981278,27.2341345 L63.7981278,13.6344364 L67.3162153,13.6344364 L67.3162153,27.2341345 L63.7981278,27.2341345 Z M71.062295,39.5320665 L69.6228891,34.8863317 L68.1631175,39.5320665 L71.062295,39.5320665 Z M81.6145899,35.8310428 C82.622174,35.8310428 83.0950724,35.5064782 83.0950724,34.7558588 C83.0950724,34.3907662 82.90971,34.0662017 82.622174,33.9040897 C82.3753694,33.7617308 82.2107179,33.7416371 81.6145899,33.7416371 L80.3602012,33.7416371 L80.3602012,35.8310428 L81.6145899,35.8310428 Z M137.828119,22.5252237 L136.388022,17.8771049 L134.927215,22.5252237 L137.828119,22.5252237 Z M82.0257008,41.2073033 C83.1565146,41.2073033 83.7733535,40.7608142 83.7733535,39.909045 C83.7733535,39.5436119 83.5883364,39.1785193 83.3004552,38.9755388 C83.012574,38.7929925 82.7246929,38.7320302 82.0257008,38.7320302 L80.3602012,38.7320302 L80.3602012,41.2073033 L82.0257008,41.2073033 Z" id="Combined-Shape"></path>
            </g>
        </g>
    </g>
</svg>