<?xml version="1.0" encoding="UTF-8"?>
<svg width="139px" height="42px" viewBox="0 0 139 42" version="1.1" xmlns="http://www.w3.org/2000/svg" xmlns:xlink="http://www.w3.org/1999/xlink">
    <!-- Generator: Sketch 40.1 (33804) - http://www.bohemiancoding.com/sketch -->
    <title>Lightscale logo</title>
    <desc>Created with Sketch.</desc>
    <defs></defs>
    <g id="Visual-design" stroke="none" stroke-width="1" fill="none" fill-rule="evenodd">
        <g id="Business-detail-1-Copy-5" transform="translate(-30.000000, -30.000000)" fill="#FF5253">
            <g id="Lightscale-logo" transform="translate(30.000000, 30.000000)">
                <path d="M0,-0.000119177264 L0,41.7119233 L41.9809997,41.7119233 L41.9809997,8.93847358 L32.9850712,8.93847358 L32.9850712,-0.000119177264 L0,-0.000119177264 Z M2.99864283,2.97961037 L29.9864283,2.97961037 L29.9864283,8.93847358 L29.9864283,11.9176072 L32.9850712,11.9176072 L38.9823568,11.9176072 L38.9823568,38.7327896 L2.99864283,38.7327896 L2.99864283,2.97961037 Z M26.9877855,5.95886321 L5.99728567,5.95886321 L5.99728567,35.7531792 L35.983714,35.7531792 L35.983714,14.897158 L26.9877855,14.897158 L26.9877855,5.95886321 Z M23.9891427,8.93829481 L23.9891427,14.897158 L23.9891427,17.8765896 L26.9877855,17.8765896 L32.9850712,17.8765896 L32.9850712,32.7737476 L8.9959285,32.7737476 L8.9959285,8.93829481 L23.9891427,8.93829481 Z M20.9904998,11.9177264 L11.9945713,11.9177264 L11.9945713,29.794316 L29.9864283,29.794316 L29.9864283,20.8560212 L20.9904998,20.8560212 L20.9904998,11.9177264 Z M17.991857,14.897158 L17.991857,20.8560212 L17.991857,23.8354528 L20.9904998,23.8354528 L26.9877855,23.8354528 L26.9877855,26.8148844 L14.9932142,26.8148844 L14.9932142,14.897158 L17.991857,14.897158 Z" id="Combined-Shape"></path>
                <path d="M68.2395752,15.9235126 C67.7034179,14.9289783 66.7561466,14.3786773 65.6124642,14.3786773 C64.7008768,14.3786773 63.8966408,14.7162469 63.253132,15.3732116 C62.627915,16.0122997 62.3418445,16.7404728 62.3418445,17.7171304 C62.3418445,18.7646986 62.6992827,19.7946881 63.2891158,20.4161975 C63.8789488,21.0201283 64.8619039,21.4104339 65.8268672,21.4104339 C67.1849525,21.4104339 68.1858995,20.6825587 68.47197,19.5107483 L64.9152798,19.5107483 L64.9152798,17.0777444 L72.0283604,17.0777444 L72.0463523,17.6992539 C72.1537037,21.3216468 69.276206,24.0743437 65.6481481,24.0743437 C62.0917577,24.0743437 59.2856277,21.3395234 59.2856277,17.8589514 C59.2856277,16.1544186 60.018496,14.4674644 61.233846,13.3665644 C62.3418445,12.3544515 64.0753599,11.7150655 65.7018238,11.7150655 C68.4539782,11.7150655 70.9740376,13.5083854 71.6709222,15.9235126 L68.2395752,15.9235126 Z M72.8912499,11.9458225 L75.9474667,11.9458225 L75.9474667,16.4030521 L79.8612953,16.4030521 L79.8612953,11.9458225 L82.9175121,11.9458225 L82.9175121,23.8432887 L79.8612953,23.8432887 L79.8612953,19.0842426 L75.9474667,19.0842426 L75.9474667,23.8432887 L72.8912499,23.8432887 L72.8912499,11.9458225 Z M86.2200074,14.6273407 L83.8429832,14.6273407 L83.8429832,11.9458522 L91.6352565,11.9458522 L91.6352565,14.6273407 L89.2762242,14.6273407 L89.2762242,23.8433185 L86.2200074,23.8433185 L86.2200074,14.6273407 Z M97.4585009,15.4085775 C97.3511495,14.6094939 97.029695,14.2543457 96.3684942,14.2543457 C95.7786612,14.2543457 95.3138716,14.6628257 95.3138716,15.1955481 C95.3138716,15.4440327 95.421223,15.7106918 95.6176341,15.8700914 C95.9037046,16.1543292 95.9037046,16.1543292 97.7982471,17.0067446 C99.7998412,17.9124918 100.604077,18.8891495 100.604077,20.4339847 C100.604077,22.7069931 99.0312891,24.0921309 96.4218701,24.0921309 C94.3129246,24.0921309 92.8474878,23.2397155 92.2936385,21.6412504 C92.0969275,21.108826 92.0612437,20.789133 92.0612437,19.919139 L95.1351524,19.919139 C95.1351524,20.9133753 95.6176341,21.5348847 96.3684942,21.5348847 C97.029695,21.5348847 97.5478605,21.0376176 97.5478605,20.3985295 C97.5478605,20.0964151 97.4048252,19.7948967 97.1904222,19.6170246 C96.832984,19.3152082 96.832984,19.3152082 94.8850656,18.5340012 C93.1869342,17.8415813 92.2576548,16.6694729 92.2576548,15.2310033 C92.2576548,13.2601093 94.0985216,11.6970995 96.4575539,11.6970995 C97.7622634,11.6970995 98.9776134,12.2122432 99.6924898,13.0646586 C100.228647,13.7037467 100.425358,14.2898009 100.496726,15.4085775 L97.4585009,15.4085775 Z M113.360034,19.3862378 C112.680841,22.1919686 110.23245,24.0740755 107.301276,24.0740755 C103.78057,24.0740755 100.992731,21.3216766 100.992731,17.8589812 C100.992731,14.4141624 103.744886,11.7150953 107.265592,11.7150953 C109.213811,11.7150953 110.929334,12.4963022 112.126692,13.9347718 C112.805885,14.7693106 113.216999,15.5859728 113.360034,16.4562648 L110.160782,16.4562648 C109.6783,15.1777907 108.570302,14.3787071 107.2479,14.3787071 C105.442717,14.3787071 104.048648,15.8880872 104.048648,17.8414025 C104.048648,19.8477518 105.460409,21.392885 107.265592,21.392885 C108.534618,21.392885 109.499581,20.7180437 110.160782,19.3862378 L113.360034,19.3862378 Z M117.267026,11.945882 L119.679734,11.945882 L124.433782,23.8433483 L121.127478,23.8433483 L120.537645,22.1209389 L116.391422,22.1209389 L115.747913,23.8433483 L112.459602,23.8433483 L117.267026,11.945882 Z M124.785943,11.9458225 L127.842159,11.9458225 L127.842159,21.1620982 L131.380858,21.1620982 L131.380858,23.8432887 L124.785943,23.8432887 L124.785943,11.9458225 Z M132.087968,11.9458225 L138.754251,11.9458225 L138.754251,14.6273109 L135.018841,14.6273109 L135.018841,16.456384 L138.629207,16.456384 L138.629207,19.1375745 L135.018841,19.1375745 L135.018841,21.1620982 L138.754251,21.1620982 L138.754251,23.8432887 L132.087968,23.8432887 L132.087968,11.9458225 Z M47.9714184,26.8282025 L51.025836,26.8282025 L51.025836,36.0394132 L54.5000636,36.0394132 L53.4223514,38.719412 L47.9714184,38.719412 L47.9714184,26.8282025 Z M59.2680257,26.8282025 L61.6792344,26.8282025 L66.4305839,38.719412 L63.1260795,38.719412 L62.5368462,36.9975984 L58.3927218,36.9975984 L57.7495129,38.719412 L54.4630004,38.719412 L59.2680257,26.8282025 Z M66.8807702,26.8383028 L70.5780968,26.8383028 C72.5251156,26.8383028 73.3290517,26.9980003 73.9719608,27.4949695 C74.6685455,28.0273939 75.1153433,28.9858771 75.1153433,29.9619389 C75.1153433,30.9734559 74.6151697,31.8255733 73.721874,32.3401212 C75.0259837,32.7661799 75.7045766,33.724663 75.7045766,35.108609 C75.7045766,36.120424 75.3117544,37.0434519 74.5971778,37.7001186 C73.721874,38.5161849 72.9002458,38.7292143 70.6854482,38.7292143 L66.8807702,38.7292143 L66.8807702,26.8383028 Z M81.64066,30.2890507 C81.5336084,29.490563 81.211854,29.1354147 80.5509532,29.1354147 C79.9617198,29.1354147 79.4972301,29.5435969 79.4972301,30.0763192 C79.4972301,30.3245059 79.6042816,30.5908671 79.8009926,30.7505646 C80.0867632,31.0345044 80.0867632,31.0345044 81.9801063,31.8863239 C83.980501,32.7914753 84.7844371,33.767835 84.7844371,35.3117765 C84.7844371,37.5832951 83.2125485,38.967837 80.6046289,38.967837 C78.4968828,38.967837 77.0323457,38.1160175 76.4784963,36.5184463 C76.2820852,35.9863198 76.2464014,35.6666268 76.2464014,34.7969307 L79.318511,34.7969307 C79.318511,35.7908691 79.8009926,36.4120805 80.5509532,36.4120805 C81.211854,36.4120805 81.7300195,35.9151114 81.7300195,35.2763212 C81.7300195,34.9745048 81.5869843,34.6729863 81.3728812,34.4951142 C81.0154429,34.1935958 81.0154429,34.1935958 79.0684241,33.4126867 C77.3714922,32.7205648 76.4428125,31.5493502 76.4428125,30.1117745 C76.4428125,28.1417743 78.2824799,26.5796583 80.6403127,26.5796583 C81.9444225,26.5796583 83.1588728,27.0945041 83.8734494,27.9463236 C84.4093069,28.5851137 84.605718,29.1711679 84.6773856,30.2890507 L81.64066,30.2890507 Z M47.9150739,11.9277969 L50.9712907,11.9277969 L50.9712907,21.1440727 L54.5099891,21.1440727 L54.5099891,23.8252632 L47.9150739,23.8252632 L47.9150739,11.9277969 Z M55.4224162,23.8253228 L58.4786329,23.8253228 L58.4786329,11.9278565 L55.4224162,11.9278565 L55.4224162,23.8253228 Z M61.7329101,34.5839609 L60.482476,30.5197182 L59.21435,34.5839609 L61.7329101,34.5839609 Z M70.8998512,31.3461828 C71.775155,31.3461828 72.1859691,31.062243 72.1859691,30.4055762 C72.1859691,30.0861812 72.024942,29.8022413 71.775155,29.6604204 C71.5607521,29.5358801 71.4177168,29.5183015 70.8998512,29.5183015 L69.8101444,29.5183015 L69.8101444,31.3461828 L70.8998512,31.3461828 Z M119.733409,19.7058117 L118.482376,15.6394834 L117.21335,19.7058117 L119.733409,19.7058117 Z M71.2569895,36.0495135 C72.2393449,36.0495135 72.7752024,35.65891 72.7752024,34.9137542 C72.7752024,34.5940612 72.6144752,34.2746661 72.3643883,34.097092 C72.1143015,33.9373944 71.8642147,33.8840626 71.2569895,33.8840626 L69.8101444,33.8840626 L69.8101444,36.0495135 L71.2569895,36.0495135 Z" id="Combined-Shape"></path>
            </g>
        </g>
    </g>
</svg>