<?xml version="1.0" encoding="UTF-8"?>
<svg width="48px" height="48px" viewBox="0 0 48 48" version="1.1" xmlns="http://www.w3.org/2000/svg" xmlns:xlink="http://www.w3.org/1999/xlink">
    <!-- Generator: Sketch 47.1 (45422) - http://www.bohemiancoding.com/sketch -->
    <title>menu_twitter</title>
    <desc>Created with Sketch.</desc>
    <defs></defs>
    <g id="Page-1" stroke="none" stroke-width="1" fill="none" fill-rule="evenodd">
        <g id="menu_twitter" fill-rule="nonzero">
            <g id="Dark_Blue" fill="#021E5C">
                <path d="M42,48 L6,48 C2.688,48 0,45.312 0,42 L0,6 C0,2.688 2.688,0 6,0 L42,0 C45.312,0 48,2.688 48,6 L48,42 C48,45.312 45.312,48 42,48 Z" id="Shape"></path>
            </g>
            <g id="Logo__x2014__FIXED" transform="translate(9.000000, 11.760000)" fill="#FFFFFF">
                <path d="M9.432,24.432 C20.748,24.432 26.94,15.048 26.94,6.924 C26.94,6.66 26.94,6.396 26.928,6.132 C28.128,5.268 29.172,4.176 30,2.94 C28.896,3.432 27.708,3.756 26.46,3.912 C27.732,3.156 28.704,1.944 29.172,0.504 C27.984,1.212 26.664,1.716 25.26,1.992 C24.132,0.792 22.536,0.048 20.772,0.048 C17.376,0.048 14.616,2.808 14.616,6.204 C14.616,6.684 14.676,7.152 14.772,7.608 C9.66,7.356 5.124,4.896 2.088,1.176 C1.56,2.088 1.26,3.144 1.26,4.272 C1.26,6.408 2.352,8.292 3.996,9.396 C2.988,9.36 2.04,9.084 1.212,8.628 C1.212,8.652 1.212,8.676 1.212,8.712 C1.212,11.688 3.336,14.184 6.144,14.748 C5.628,14.892 5.088,14.964 4.524,14.964 C4.128,14.964 3.744,14.928 3.372,14.856 C4.152,17.304 6.432,19.08 9.12,19.128 C7.008,20.784 4.356,21.768 1.476,21.768 C0.984,21.768 0.492,21.744 0.012,21.684 C2.724,23.412 5.964,24.432 9.432,24.432" id="Shape"></path>
            </g>
        </g>
    </g>
</svg>