<?xml version="1.0" encoding="UTF-8"?>
<svg width="16px" height="12px" viewBox="0 0 16 12" version="1.1" xmlns="http://www.w3.org/2000/svg" xmlns:xlink="http://www.w3.org/1999/xlink">
    <!-- Generator: Sketch 47.1 (45422) - http://www.bohemiancoding.com/sketch -->
    <title>if_menu-alt_134216</title>
    <desc>Created with Sketch.</desc>
    <defs></defs>
    <g id="Page-1" stroke="none" stroke-width="1" fill="none" fill-rule="evenodd">
        <g id="if_menu-alt_134216" fill-rule="nonzero" fill="#FFFFFF">
            <path d="M1.14285714,2.4 L14.8571429,2.4 C15.488,2.4 16,1.8624 16,1.2 C16,0.5376 15.488,0 14.8571429,0 L1.14285714,0 C0.512,0 0,0.5376 0,1.2 C0,1.8624 0.512,2.4 1.14285714,2.4 Z M14.8571429,4.8 L1.14285714,4.8 C0.512,4.8 0,5.3376 0,6 C0,6.6624 0.512,7.2 1.14285714,7.2 L14.8571429,7.2 C15.488,7.2 16,6.6624 16,6 C16,5.3376 15.488,4.8 14.8571429,4.8 Z M14.8571429,9.6 L1.14285714,9.6 C0.512,9.6 0,10.1376 0,10.8 C0,11.4624 0.512,12 1.14285714,12 L14.8571429,12 C15.488,12 16,11.4624 16,10.8 C16,10.1376 15.488,9.6 14.8571429,9.6 Z" id="Shape"></path>
        </g>
    </g>
</svg>