<?xml version="1.0" encoding="UTF-8"?>
<svg width="48px" height="48px" viewBox="0 0 48 48" version="1.1" xmlns="http://www.w3.org/2000/svg" xmlns:xlink="http://www.w3.org/1999/xlink">
    <!-- Generator: Sketch 47.1 (45422) - http://www.bohemiancoding.com/sketch -->
    <title>Shape</title>
    <desc>Created with Sketch.</desc>
    <defs></defs>
    <g id="Page-1" stroke="none" stroke-width="1" fill="none" fill-rule="evenodd">
        <g id="menu_pricing_instagram" fill-rule="nonzero" fill="#021E5C">
            <path d="M14.1136364,0 C6.36271724,0 0,6.36092662 0,14.1136364 L0,33.8863636 C0,41.6372836 6.36092662,48 14.1136364,48 L33.8863636,48 C41.6372836,48 48,41.6390727 48,33.8863636 L48,14.1136364 C48,6.36271724 41.6390727,0 33.8863636,0 L14.1136364,0 Z M14.1136364,4.36363636 L33.8863636,4.36363636 C39.2812909,4.36363636 43.6363636,8.72128276 43.6363636,14.1136364 L43.6363636,33.8863636 C43.6363636,39.2812909 39.2787164,43.6363636 33.8863636,43.6363636 L14.1136364,43.6363636 C8.71870975,43.6363636 4.36363636,39.2787164 4.36363636,33.8863636 L4.36363636,14.1136364 C4.36363636,8.71870975 8.72128276,4.36363636 14.1136364,4.36363636 Z M36.8863636,9.13636364 C35.7910342,9.13636364 34.9090909,10.0183043 34.9090909,11.1136364 C34.9090909,12.2089658 35.7910342,13.0909091 36.8863636,13.0909091 C37.9816953,13.0909091 38.8636364,12.2089658 38.8636364,11.1136364 C38.8636364,10.0183043 37.9816953,9.13636364 36.8863636,9.13636364 Z M24,10.9090909 C16.7959331,10.9090909 10.9090909,16.7959331 10.9090909,24 C10.9090909,31.2040669 16.7959331,37.0909091 24,37.0909091 C31.2040669,37.0909091 37.0909091,31.2040669 37.0909091,24 C37.0909091,16.7959331 31.2040669,10.9090909 24,10.9090909 Z M24,15.2727273 C28.8457833,15.2727273 32.7272727,19.1542167 32.7272727,24 C32.7272727,28.8457833 28.8457833,32.7272727 24,32.7272727 C19.1542167,32.7272727 15.2727273,28.8457833 15.2727273,24 C15.2727273,19.1542167 19.1542167,15.2727273 24,15.2727273 Z" id="Shape"></path>
        </g>
    </g>
</svg>