<?xml version="1.0" encoding="UTF-8"?>
<svg width="18px" height="19px" viewBox="0 0 18 19" version="1.1" xmlns="http://www.w3.org/2000/svg" xmlns:xlink="http://www.w3.org/1999/xlink">
    <!-- Generator: Sketch 46.2 (44496) - http://www.bohemiancoding.com/sketch -->
    <title>People icon</title>
    <desc>Created with Sketch.</desc>
    <defs></defs>
    <g id="✅-Sample-request" stroke="none" stroke-width="1" fill="none" fill-rule="evenodd">
        <g id="Sample-Request-1-Copy-4" transform="translate(-106.000000, -268.000000)" fill="#001032">
            <path d="M108,279.999926 L106,287 L124,287 L122,279.999926 L108,279.999926 Z M109.508,281.999947 L120.492,281.999947 L121.349,284.999979 L108.652,284.999979 L109.508,281.999947 Z M115.0002,278.000105 C112.2392,278.000105 110.0002,275.761082 110.0002,273.000053 C110.0002,270.239024 112.2392,268 115.0002,268 C117.7612,268 120.0002,270.239024 120.0002,273.000053 C120.0002,275.761082 117.7612,278.000105 115.0002,278.000105 Z M115.0002,270.000021 C113.3462,270.000021 112.0002,271.346035 112.0002,273.000053 C112.0002,274.65407 113.3462,276.000084 115.0002,276.000084 C116.6542,276.000084 118.0002,274.65407 118.0002,273.000053 C118.0002,271.346035 116.6542,270.000021 115.0002,270.000021 Z" id="People-icon"></path>
        </g>
    </g>
</svg>