<?xml version="1.0" encoding="UTF-8"?>
<svg width="13px" height="19px" viewBox="0 0 13 19" version="1.1" xmlns="http://www.w3.org/2000/svg" xmlns:xlink="http://www.w3.org/1999/xlink">
    <!-- Generator: Sketch 46.2 (44496) - http://www.bohemiancoding.com/sketch -->
    <title>Drop</title>
    <desc>Created with Sketch.</desc>
    <defs></defs>
    <g id="✅-Homepage" stroke="none" stroke-width="1" fill="none" fill-rule="evenodd">
        <g id="Lightscale-Home" transform="translate(-100.000000, -5958.000000)" fill="#1E4AFF">
            <path d="M106.499524,5961.1246 C105.103406,5962.97628 102.218419,5967.13518 101.966532,5970.17992 C101.866949,5971.37395 102.2975,5972.59165 103.145911,5973.52439 C104.016776,5974.47981 105.238136,5975.02802 106.499524,5975.02802 C107.760913,5975.02802 108.983249,5974.47981 109.853138,5973.52439 C110.702525,5972.59165 111.1321,5971.37296 111.033493,5970.17992 C110.78063,5967.13518 107.895643,5962.97628 106.499524,5961.1246 M106.499524,5977 C104.693357,5977 102.94772,5976.22008 101.708787,5974.85942 C100.491333,5973.52242 99.8762593,5971.75651 100.020753,5970.01526 C100.404441,5965.38111 105.533957,5959.16248 105.751673,5958.89922 L106.499524,5958 L107.247375,5958.89922 C107.465092,5959.16149 112.594608,5965.38111 112.979273,5970.01526 C113.123766,5971.75651 112.507716,5973.52242 111.290262,5974.85942 C110.052305,5976.22008 108.305692,5977 106.499524,5977" id="Drop" transform="translate(106.500000, 5967.500000) scale(1, -1) translate(-106.500000, -5967.500000) "></path>
        </g>
    </g>
</svg>