<?xml version="1.0" encoding="UTF-8" standalone="no"?>
<svg width="14px" height="20px" viewBox="0 0 14 20" version="1.1" xmlns="http://www.w3.org/2000/svg" xmlns:xlink="http://www.w3.org/1999/xlink">
    <!-- Generator: Sketch 41.2 (35397) - http://www.bohemiancoding.com/sketch -->
    <title>Drop</title>
    <desc>Created with Sketch.</desc>
    <defs></defs>
    <g id="V2" stroke="none" stroke-width="1" fill="none" fill-rule="evenodd">
        <g id="Lightscale-One-pager-Copy" transform="translate(-80.000000, -4860.000000)" fill="#AF2796">
            <path d="M86.6572563,4863.169 C85.2272563,4865.047 82.2722563,4869.265 82.0142563,4872.353 C81.9122563,4873.564 82.3532563,4874.799 83.2222563,4875.745 C84.1142563,4876.714 85.3652563,4877.27 86.6572563,4877.27 C87.9492563,4877.27 89.2012563,4876.714 90.0922563,4875.745 C90.9622563,4874.799 91.4022563,4873.563 91.3012563,4872.353 C91.0422563,4869.265 88.0872563,4865.047 86.6572563,4863.169 M86.6572563,4879.27 C84.8072563,4879.27 83.0192563,4878.479 81.7502563,4877.099 C80.5032563,4875.743 79.8732563,4873.952 80.0212563,4872.186 C80.4142563,4867.486 85.6682563,4861.179 85.8912563,4860.912 L86.6572563,4860 L87.4232563,4860.912 C87.6462563,4861.178 92.9002563,4867.486 93.2942563,4872.186 C93.4422563,4873.952 92.8112563,4875.743 91.5642563,4877.099 C90.2962563,4878.479 88.5072563,4879.27 86.6572563,4879.27" id="Drop" transform="translate(86.657743, 4869.635000) scale(1, -1) translate(-86.657743, -4869.635000) "></path>
        </g>
    </g>
</svg>