<?xml version="1.0" encoding="UTF-8"?>
<svg width="16px" height="16px" viewBox="0 0 16 16" version="1.1" xmlns="http://www.w3.org/2000/svg" xmlns:xlink="http://www.w3.org/1999/xlink">
    <!-- Generator: Sketch 47.1 (45422) - http://www.bohemiancoding.com/sketch -->
    <title>Combined Shape Copy</title>
    <desc>Created with Sketch.</desc>
    <defs></defs>
    <g id="✏️-Sample-Request" stroke="none" stroke-width="1" fill="none" fill-rule="evenodd">
        <g id="Sample-Request-7" transform="translate(-484.000000, -1678.000000)" fill="#FF3A4F">
            <path d="M492,1692.4 C488.4712,1692.4 485.6,1689.5288 485.6,1686 C485.6,1682.4712 488.4712,1679.6 492,1679.6 C495.5288,1679.6 498.4,1682.4712 498.4,1686 C498.4,1689.5288 495.5288,1692.4 492,1692.4 M492,1678 C496.4184,1678 500,1681.5816 500,1686 C500,1690.4184 496.4184,1694 492,1694 C487.5816,1694 484,1690.4184 484,1686 C484,1681.5816 487.5816,1678 492,1678 Z M492.8,1685.2 L491.2,1685.2 L488.8,1685.2 C488.3576,1685.2 488,1685.5584 488,1686 C488,1686.4416 488.3576,1686.8 488.8,1686.8 L491.2,1686.8 L492.8,1686.8 L495.2,1686.8 C495.6424,1686.8 496,1686.4416 496,1686 C496,1685.5584 495.6424,1685.2 495.2,1685.2 L492.8,1685.2 Z" id="Combined-Shape-Copy"></path>
        </g>
    </g>
</svg>