<?xml version="1.0" encoding="UTF-8"?>
<svg width="24px" height="24px" viewBox="0 0 24 24" version="1.1" xmlns="http://www.w3.org/2000/svg" xmlns:xlink="http://www.w3.org/1999/xlink">
    <!-- Generator: Sketch 50.2 (55047) - http://www.bohemiancoding.com/sketch -->
    <title>Samples icon</title>
    <desc>Created with Sketch.</desc>
    <defs></defs>
    <g id="Samples-icon" stroke="none" stroke-width="1" fill="none" fill-rule="evenodd">
        <path d="M6,20 L18,20 L18,8 L6,8 L6,20 Z M5,6 L7,6 L7,4 L5,4 L5,6 Z M9,6 L11,6 L11,4 L9,4 L9,6 Z M13,6 L19,6 L19,4 L13,4 L13,6 Z M21,2 L21,8 L20,8 L20,22 L4,22 L4,8 L3,8 L3,2 L21,2 Z M12,18 C14.209,18 16,16.209 16,14 C16,11.791 14.209,10 12,10 C9.791,10 8,11.791 8,14 C8,16.209 9.791,18 12,18 Z M12,12 C13.103,12 14,12.897 14,14 C14,15.103 13.103,16 12,16 C10.897,16 10,15.103 10,14 C10,12.897 10.897,12 12,12 Z" id="Combined-Shape" fill="#1DC77D"></path>
    </g>
</svg>