<?xml version="1.0" encoding="UTF-8"?>
<svg width="24px" height="20px" viewBox="0 0 24 20" version="1.1" xmlns="http://www.w3.org/2000/svg" xmlns:xlink="http://www.w3.org/1999/xlink">
    <!-- Generator: Sketch 47.1 (45422) - http://www.bohemiancoding.com/sketch -->
    <title>shirt</title>
    <desc>Created with Sketch.</desc>
    <defs></defs>
    <g id="Page-1" stroke="none" stroke-width="1" fill="none" fill-rule="evenodd">
        <g id="shirt" fill-rule="nonzero" fill="#FFFFFF">
            <path d="M16.9472897,0.0308411215 L14.4553271,0.0308411215 C14.4553271,1.4053271 13.336729,2.52317757 11.9626168,2.52317757 C10.5885047,2.52317757 9.47065421,1.4053271 9.47065421,0.0308411215 L6.97831776,0.0308411215 L0,4.01850467 L1.99401869,9.50149533 L4.9846729,8.50448598 L4.9846729,19.9691589 L18.9413084,19.9691589 L18.9413084,8.50448598 L21.9319626,9.50149533 L23.9252336,4.01850467 L16.9472897,0.0308411215 Z M21.3259346,8.24892523 L19.2559813,7.55892523 L17.9439252,7.12126168 L17.9439252,8.50453271 L17.9439252,18.9718224 L5.98130841,18.9718224 L5.98130841,8.50453271 L5.98130841,7.12126168 L4.66925234,7.55897196 L2.59929907,8.24897196 L1.22406542,4.46719626 L7.24299065,1.02785047 L8.6182243,1.02785047 C9.04719626,2.46915888 10.382243,3.52018692 11.9626168,3.52018692 C13.5433645,3.52018692 14.8780841,2.46915888 15.3066355,1.02785047 L16.682243,1.02785047 L22.7014953,4.46719626 L21.3259346,8.24892523 Z" id="Shape"></path>
        </g>
    </g>
</svg>