<?xml version="1.0" encoding="UTF-8"?>
<svg width="18px" height="19px" viewBox="0 0 18 19" version="1.1" xmlns="http://www.w3.org/2000/svg" xmlns:xlink="http://www.w3.org/1999/xlink">
    <!-- Generator: Sketch 46.2 (44496) - http://www.bohemiancoding.com/sketch -->
    <title>People icon</title>
    <desc>Created with Sketch.</desc>
    <defs></defs>
    <g id="✅-Homepage" stroke="none" stroke-width="1" fill="none" fill-rule="evenodd">
        <g id="Lightscale-Home" transform="translate(-99.000000, -6940.000000)" fill="#6BD5C8">
            <path d="M101,6951.9998 L99,6958.9998 L117,6958.9998 L115,6951.9998 L101,6951.9998 Z M102.508,6953.9998 L113.492,6953.9998 L114.349,6956.9998 L101.652,6956.9998 L102.508,6953.9998 Z M108.0002,6950 C105.2392,6950 103.0002,6947.761 103.0002,6945 C103.0002,6942.239 105.2392,6940 108.0002,6940 C110.7612,6940 113.0002,6942.239 113.0002,6945 C113.0002,6947.761 110.7612,6950 108.0002,6950 Z M108.0002,6942 C106.3462,6942 105.0002,6943.346 105.0002,6945 C105.0002,6946.654 106.3462,6948 108.0002,6948 C109.6542,6948 111.0002,6946.654 111.0002,6945 C111.0002,6943.346 109.6542,6942 108.0002,6942 Z" id="People-icon"></path>
        </g>
    </g>
</svg>