<?xml version="1.0" encoding="UTF-8" standalone="no"?>
<svg width="20px" height="20px" viewBox="0 0 20 20" version="1.1" xmlns="http://www.w3.org/2000/svg" xmlns:xlink="http://www.w3.org/1999/xlink">
    <!-- Generator: Sketch 41.2 (35397) - http://www.bohemiancoding.com/sketch -->
    <title>Group 2</title>
    <desc>Created with Sketch.</desc>
    <defs></defs>
    <g id="V2" stroke="none" stroke-width="1" fill="none" fill-rule="evenodd">
        <g id="Lightscale-One-pager-Copy" transform="translate(-80.000000, -2547.000000)" fill="#1E4AFF">
            <g id="Group-2" transform="translate(80.000000, 2547.000000)">
                <path d="M10,0 C4.477,0 0,4.477 0,10 C0,15.523 4.477,20 10,20 C15.523,20 20,15.523 20,10 C20,4.477 15.523,0 10,0 M10,2 C14.411,2 18,5.589 18,10 C18,14.411 14.411,18 10,18 C5.589,18 2,14.411 2,10 C2,5.589 5.589,2 10,2" id="Fill-1"></path>
                <path d="M10,4 C6.686,4 4,6.686 4,10 C4,13.314 6.686,16 10,16 C13.314,16 16,13.314 16,10 C16,6.686 13.314,4 10,4 M10,6 C12.206,6 14,7.794 14,10 C14,12.206 12.206,14 10,14 C7.794,14 6,12.206 6,10 C6,7.794 7.794,6 10,6" id="Fill-3"></path>
                <path d="M10,8 C8.895,8 8,8.895 8,10 C8,11.105 8.895,12 10,12 C11.105,12 12,11.105 12,10 C12,8.895 11.105,8 10,8" id="Fill-5"></path>
            </g>
        </g>
    </g>
</svg>