<?xml version="1.0" encoding="UTF-8"?>
<svg width="24px" height="20px" viewBox="0 0 24 20" version="1.1" xmlns="http://www.w3.org/2000/svg" xmlns:xlink="http://www.w3.org/1999/xlink">
    <!-- Generator: Sketch 47.1 (45422) - http://www.bohemiancoding.com/sketch -->
    <title>Vials</title>
    <desc>Created with Sketch.</desc>
    <defs></defs>
    <g id="✅-Homepage" stroke="none" stroke-width="1" fill="none" fill-rule="evenodd">
        <g id="Lightscale-Home" transform="translate(-102.000000, -906.000000)" fill="#00B667">
            <path d="M105,911 L110,911 L110,908 L105,908 L105,911 Z M110,921.009 C110,922.658 108.98,924 107.726,924 L107.274,924 C106.02,924 105,922.658 105,921.009 L105,921 L108,921 L108,919 L105,919 L105,917 L108,917 L108,915 L105,915 L105,913 L110,913 L110,921.009 Z M112,906 C112.552,906 113,906.448 113,907 C113,907.552 112.552,908 112,908 L112,921.009 C112,923.761 110.083,926 107.726,926 L107.274,926 C104.917,926 103,923.761 103,921.009 L103,908 C102.448,908 102,907.552 102,907 C102,906.448 102.448,906 103,906 L112,906 Z M125,906 C125.553,906 126,906.448 126,907 C126,907.552 125.553,908 125,908 L125,921.009 C125,923.761 123.083,926 120.726,926 L120.274,926 C117.917,926 116,923.761 116,921.009 L116,908 C115.448,908 115,907.552 115,907 C115,906.448 115.448,906 116,906 L125,906 Z M123,921.009 L123,913 L118,913 L118,915 L121,915 L121,917 L118,917 L118,919 L121,919 L121,921 L118,921 L118,921.009 C118,922.658 119.02,924 120.274,924 L120.726,924 C121.979,924 123,922.658 123,921.009 Z M118,911 L123,911 L123,908 L118,908 L118,911 Z" id="Vials"></path>
        </g>
    </g>
</svg>