<?xml version="1.0" encoding="UTF-8" standalone="no"?>
<svg width="24px" height="20px" viewBox="0 0 24 20" version="1.1" xmlns="http://www.w3.org/2000/svg" xmlns:xlink="http://www.w3.org/1999/xlink">
    <!-- Generator: Sketch 41.2 (35397) - http://www.bohemiancoding.com/sketch -->
    <title>Vials</title>
    <desc>Created with Sketch.</desc>
    <defs></defs>
    <g id="V2" stroke="none" stroke-width="1" fill="none" fill-rule="evenodd">
        <g id="Lightscale-One-pager-Copy" transform="translate(-80.000000, -822.000000)" fill="#FF5253">
            <path d="M83,827 L88,827 L88,824 L83,824 L83,827 Z M88,837.009 C88,838.658 86.98,840 85.726,840 L85.274,840 C84.02,840 83,838.658 83,837.009 L83,837 L86,837 L86,835 L83,835 L83,833 L86,833 L86,831 L83,831 L83,829 L88,829 L88,837.009 Z M90,822 L81,822 C80.448,822 80,822.448 80,823 C80,823.552 80.448,824 81,824 L81,837.009 C81,839.761 82.917,842 85.274,842 L85.726,842 C88.083,842 90,839.761 90,837.009 L90,824 C90.552,824 91,823.552 91,823 C91,822.448 90.552,822 90,822 Z M103,822 L94,822 C93.448,822 93,822.448 93,823 C93,823.552 93.448,824 94,824 L94,837.009 C94,839.761 95.917,842 98.274,842 L98.726,842 C101.083,842 103,839.761 103,837.009 L103,824 C103.553,824 104,823.552 104,823 C104,822.448 103.553,822 103,822 Z M101,837.009 C101,838.658 99.979,840 98.726,840 L98.274,840 C97.02,840 96,838.658 96,837.009 L96,837 L99,837 L99,835 L96,835 L96,833 L99,833 L99,831 L96,831 L96,829 L101,829 L101,837.009 Z M96,827 L101,827 L101,824 L96,824 L96,827 Z" id="Vials"></path>
        </g>
    </g>
</svg>